<mxfile host="65bd71144e">
    <diagram id="xSI8jw17s72NfXY92Z4g" name="Page-1">
        <mxGraphModel dx="5859" dy="2893" grid="1" gridSize="10" guides="1" tooltips="1" connect="1" arrows="1" fold="1" page="1" pageScale="1" pageWidth="827" pageHeight="1169" background="#1A1A1A" math="0" shadow="0">
            <root>
                <mxCell id="0"/>
                <mxCell id="1" parent="0"/>
                <mxCell id="2" value="&lt;font color=&quot;#ffffff&quot;&gt;Profiles model&lt;/font&gt;" style="shape=table;startSize=30;container=1;collapsible=1;childLayout=tableLayout;fixedRows=0;rowLines=1;fontStyle=4;align=center;resizeLast=1;fontSize=20;labelPosition=center;verticalLabelPosition=middle;verticalAlign=middle;labelBackgroundColor=#18141D;horizontal=1;spacingLeft=0;fontFamily=Verdana;spacing=0;labelBorderColor=none;movable=0;resizable=0;rotatable=0;deletable=0;editable=0;connectable=0;swimlaneFillColor=#18141D;rounded=0;swimlaneLine=1;strokeWidth=1;perimeterSpacing=0;fontColor=#d1d5db;fillColor=#18141D;strokeColor=#D1D5DB;gradientColor=none;arcSize=1;separatorColor=#D1D5DB;columnLines=1;right=0;swimlaneBody=1;resizeLastRow=0;left=0;html=1;" parent="1" vertex="1">
                    <mxGeometry x="-4850" y="-2280" width="570" height="270" as="geometry"/>
                </mxCell>
                <mxCell id="3" value="" style="shape=tableRow;horizontal=0;startSize=0;swimlaneHead=0;swimlaneBody=0;collapsible=0;dropTarget=0;points=[[0,0.5],[1,0.5]];portConstraint=eastwest;top=0;left=0;right=0;bottom=1;align=left;fontSize=11;fontStyle=0;fontFamily=Verdana;verticalAlign=middle;spacing=0;spacingLeft=0;labelBackgroundColor=#18141D;labelBorderColor=none;fillColor=#18141D;movable=0;resizable=0;rotatable=0;deletable=0;editable=0;connectable=0;fontColor=#d1d5db;html=1;strokeColor=#D1D5DB;strokeWidth=1;" parent="2" vertex="1">
                    <mxGeometry y="30" width="570" height="30" as="geometry"/>
                </mxCell>
                <mxCell id="4" value="Name" style="shape=partialRectangle;connectable=0;top=1;left=1;bottom=1;right=1;fontStyle=4;overflow=hidden;align=left;fontSize=12;fontFamily=Verdana;verticalAlign=middle;spacingLeft=5;spacing=0;labelBackgroundColor=#18141D;labelBorderColor=none;fillColor=#18141D;strokeColor=#D1D5DB;strokeWidth=1;perimeterSpacing=0;movable=0;resizable=0;rotatable=0;deletable=0;editable=0;fontColor=#d1d5db;html=1;" parent="3" vertex="1">
                    <mxGeometry width="80" height="30" as="geometry">
                        <mxRectangle width="80" height="30" as="alternateBounds"/>
                    </mxGeometry>
                </mxCell>
                <mxCell id="5" value="Type" style="shape=partialRectangle;connectable=0;top=1;left=1;bottom=1;right=1;align=left;spacingLeft=5;fontStyle=4;overflow=hidden;fontSize=12;fontFamily=Verdana;verticalAlign=middle;spacing=0;labelBackgroundColor=#18141D;labelBorderColor=none;fillColor=#18141D;strokeColor=#D1D5DB;strokeWidth=1;perimeterSpacing=0;movable=0;resizable=0;rotatable=0;deletable=0;editable=0;fontColor=#d1d5db;html=1;" parent="3" vertex="1">
                    <mxGeometry x="80" width="90" height="30" as="geometry">
                        <mxRectangle width="90" height="30" as="alternateBounds"/>
                    </mxGeometry>
                </mxCell>
                <mxCell id="6" value="Description" style="shape=partialRectangle;connectable=0;top=1;left=1;bottom=1;right=1;align=left;spacingLeft=5;fontStyle=4;overflow=hidden;fontSize=12;fontFamily=Verdana;verticalAlign=middle;spacing=0;labelBackgroundColor=#18141D;labelBorderColor=none;movable=0;resizable=0;rotatable=0;deletable=0;editable=0;fillColor=#18141D;strokeColor=#D1D5DB;strokeWidth=1;perimeterSpacing=0;fontColor=#d1d5db;html=1;" parent="3" vertex="1">
                    <mxGeometry x="170" width="400" height="30" as="geometry">
                        <mxRectangle width="400" height="30" as="alternateBounds"/>
                    </mxGeometry>
                </mxCell>
                <mxCell id="7" value="" style="shape=tableRow;horizontal=0;startSize=0;swimlaneHead=0;swimlaneBody=0;collapsible=0;dropTarget=0;points=[[0,0.5],[1,0.5]];portConstraint=eastwest;top=0;left=0;right=0;bottom=1;align=left;fontSize=11;fontStyle=0;fontFamily=Verdana;verticalAlign=middle;spacing=0;spacingLeft=0;labelBackgroundColor=#18141D;labelBorderColor=none;fillColor=#18141D;movable=0;resizable=0;rotatable=0;deletable=0;editable=0;connectable=0;fontColor=#d1d5db;html=1;strokeColor=#D1D5DB;strokeWidth=1;" parent="2" vertex="1">
                    <mxGeometry y="60" width="570" height="30" as="geometry"/>
                </mxCell>
                <mxCell id="8" value="id" style="shape=partialRectangle;connectable=0;top=1;left=1;bottom=1;right=1;fontStyle=4;overflow=hidden;align=left;fontSize=10;fontFamily=Verdana;verticalAlign=middle;spacingLeft=5;spacing=0;labelBackgroundColor=#18141D;labelBorderColor=none;fillColor=#18141D;strokeColor=#D1D5DB;strokeWidth=1;perimeterSpacing=0;movable=0;resizable=0;rotatable=0;deletable=0;editable=0;fontColor=#d1d5db;html=1;" parent="7" vertex="1">
                    <mxGeometry width="80" height="30" as="geometry">
                        <mxRectangle width="80" height="30" as="alternateBounds"/>
                    </mxGeometry>
                </mxCell>
                <mxCell id="9" value="Primary Key" style="shape=partialRectangle;connectable=0;top=1;left=1;bottom=1;right=1;align=left;spacingLeft=5;fontStyle=4;overflow=hidden;fontSize=10;fontFamily=Verdana;verticalAlign=middle;spacing=0;labelBackgroundColor=#18141D;labelBorderColor=none;fillColor=#18141D;strokeColor=#D1D5DB;strokeWidth=1;perimeterSpacing=0;movable=0;resizable=0;rotatable=0;deletable=0;editable=0;fontColor=#d1d5db;html=1;" parent="7" vertex="1">
                    <mxGeometry x="80" width="90" height="30" as="geometry">
                        <mxRectangle width="90" height="30" as="alternateBounds"/>
                    </mxGeometry>
                </mxCell>
                <mxCell id="10" value="Unique identifier for each profile." style="shape=partialRectangle;connectable=0;top=1;left=1;bottom=1;right=1;align=left;spacingLeft=5;fontStyle=4;overflow=hidden;fontSize=10;fontFamily=Verdana;verticalAlign=middle;spacing=0;labelBackgroundColor=#18141D;labelBorderColor=none;movable=0;resizable=0;rotatable=0;deletable=0;editable=0;fillColor=#18141D;strokeColor=#D1D5DB;strokeWidth=1;perimeterSpacing=0;fontColor=#d1d5db;html=1;" parent="7" vertex="1">
                    <mxGeometry x="170" width="400" height="30" as="geometry">
                        <mxRectangle width="400" height="30" as="alternateBounds"/>
                    </mxGeometry>
                </mxCell>
                <mxCell id="11" value="" style="shape=tableRow;horizontal=0;startSize=0;swimlaneHead=0;swimlaneBody=0;collapsible=0;dropTarget=0;points=[[0,0.5],[1,0.5]];portConstraint=eastwest;top=0;left=0;right=0;bottom=0;align=left;fontSize=11;fontStyle=0;fontFamily=Verdana;labelBackgroundColor=#18141D;verticalAlign=middle;spacing=0;spacingLeft=0;labelBorderColor=none;fillColor=#18141D;movable=0;resizable=0;rotatable=0;deletable=0;editable=0;connectable=0;fontColor=#d1d5db;html=1;strokeColor=#D1D5DB;strokeWidth=1;" parent="2" vertex="1">
                    <mxGeometry y="90" width="570" height="30" as="geometry"/>
                </mxCell>
                <mxCell id="12" value="owner" style="shape=partialRectangle;connectable=0;top=0;left=1;bottom=1;right=1;editable=0;overflow=hidden;align=left;fontSize=10;fontStyle=0;fontFamily=Verdana;verticalAlign=middle;spacingLeft=5;spacing=0;labelBackgroundColor=#18141D;labelBorderColor=none;fillColor=#18141D;strokeColor=#D1D5DB;strokeWidth=1;movable=0;resizable=0;rotatable=0;deletable=0;fontColor=#d1d5db;html=1;" parent="11" vertex="1">
                    <mxGeometry width="80" height="30" as="geometry">
                        <mxRectangle width="80" height="30" as="alternateBounds"/>
                    </mxGeometry>
                </mxCell>
                <mxCell id="13" value="OneToOneField" style="shape=partialRectangle;connectable=0;top=0;left=1;bottom=1;right=1;align=left;spacingLeft=5;overflow=hidden;fontSize=10;fontStyle=0;fontFamily=Verdana;verticalAlign=middle;spacing=0;labelBackgroundColor=#18141D;labelBorderColor=none;fillColor=#18141D;strokeColor=#D1D5DB;strokeWidth=1;movable=0;resizable=0;rotatable=0;deletable=0;editable=0;fontColor=#d1d5db;html=1;" parent="11" vertex="1">
                    <mxGeometry x="80" width="90" height="30" as="geometry">
                        <mxRectangle width="90" height="30" as="alternateBounds"/>
                    </mxGeometry>
                </mxCell>
                <mxCell id="14" value="Links to the User model, one-to-one relationship." style="shape=partialRectangle;connectable=0;top=0;left=1;bottom=1;right=1;align=left;spacingLeft=5;overflow=hidden;fontSize=10;fontStyle=0;fontFamily=Verdana;verticalAlign=middle;labelBackgroundColor=#18141D;spacing=0;labelBorderColor=none;fillColor=#18141D;strokeColor=#D1D5DB;strokeWidth=1;movable=0;resizable=0;rotatable=0;deletable=0;editable=0;fontColor=#d1d5db;html=1;" parent="11" vertex="1">
                    <mxGeometry x="170" width="400" height="30" as="geometry">
                        <mxRectangle width="400" height="30" as="alternateBounds"/>
                    </mxGeometry>
                </mxCell>
                <mxCell id="15" value="" style="shape=tableRow;horizontal=0;startSize=0;swimlaneHead=0;swimlaneBody=0;collapsible=0;dropTarget=0;points=[[0,0.5],[1,0.5]];portConstraint=eastwest;top=0;left=0;right=0;bottom=0;align=left;fontSize=11;fontStyle=0;fontFamily=Verdana;labelBackgroundColor=#18141D;verticalAlign=middle;spacing=0;spacingLeft=0;labelBorderColor=none;fillColor=#18141D;movable=0;resizable=0;rotatable=0;deletable=0;editable=0;connectable=0;fontColor=#d1d5db;html=1;strokeColor=#D1D5DB;strokeWidth=1;" parent="2" vertex="1">
                    <mxGeometry y="120" width="570" height="30" as="geometry"/>
                </mxCell>
                <mxCell id="16" value="created_at" style="shape=partialRectangle;connectable=0;top=0;left=1;bottom=1;right=1;editable=0;overflow=hidden;align=left;fontSize=10;fontStyle=0;fontFamily=Verdana;verticalAlign=middle;spacingLeft=5;spacing=0;labelBackgroundColor=#18141D;labelBorderColor=none;fillColor=#18141D;strokeColor=#D1D5DB;allowArrows=1;expand=1;strokeWidth=1;movable=0;resizable=0;rotatable=0;deletable=0;fontColor=#d1d5db;html=1;" parent="15" vertex="1">
                    <mxGeometry width="80" height="30" as="geometry">
                        <mxRectangle width="80" height="30" as="alternateBounds"/>
                    </mxGeometry>
                </mxCell>
                <mxCell id="17" value="DateTimeField" style="shape=partialRectangle;connectable=0;top=0;left=1;bottom=1;right=1;align=left;spacingLeft=5;overflow=hidden;fontSize=10;fontStyle=0;fontFamily=Verdana;verticalAlign=middle;spacing=0;labelBackgroundColor=#18141D;labelBorderColor=none;fillColor=#18141D;strokeColor=#D1D5DB;allowArrows=1;expand=1;strokeWidth=1;movable=0;resizable=0;rotatable=0;deletable=0;editable=0;fontColor=#d1d5db;html=1;" parent="15" vertex="1">
                    <mxGeometry x="80" width="90" height="30" as="geometry">
                        <mxRectangle width="90" height="30" as="alternateBounds"/>
                    </mxGeometry>
                </mxCell>
                <mxCell id="18" value="Automatically set to the date and time when the profile is created." style="shape=partialRectangle;connectable=0;top=0;left=1;bottom=1;right=1;align=left;spacingLeft=5;overflow=hidden;fontSize=10;fontStyle=0;fontFamily=Verdana;verticalAlign=middle;labelBackgroundColor=#18141D;spacing=0;labelBorderColor=none;fillColor=#18141D;strokeColor=#D1D5DB;allowArrows=1;expand=1;strokeWidth=1;movable=0;resizable=0;rotatable=0;deletable=0;editable=0;fontColor=#d1d5db;html=1;" parent="15" vertex="1">
                    <mxGeometry x="170" width="400" height="30" as="geometry">
                        <mxRectangle width="400" height="30" as="alternateBounds"/>
                    </mxGeometry>
                </mxCell>
                <mxCell id="19" value="" style="shape=tableRow;horizontal=0;startSize=0;swimlaneHead=0;swimlaneBody=0;collapsible=0;dropTarget=0;points=[[0,0.5],[1,0.5]];portConstraint=eastwest;top=0;left=0;right=0;bottom=0;align=left;fontSize=11;fontStyle=0;fontFamily=Verdana;verticalAlign=middle;spacing=0;spacingLeft=0;labelBackgroundColor=#18141D;labelBorderColor=none;fillColor=#18141D;movable=0;resizable=0;rotatable=0;deletable=0;editable=0;connectable=0;fontColor=#d1d5db;html=1;strokeColor=#D1D5DB;strokeWidth=1;" parent="2" vertex="1">
                    <mxGeometry y="150" width="570" height="30" as="geometry"/>
                </mxCell>
                <mxCell id="20" value="updated_at" style="shape=partialRectangle;connectable=0;top=0;left=1;bottom=1;right=1;editable=0;overflow=hidden;align=left;fontSize=10;fontStyle=0;fontFamily=Verdana;verticalAlign=middle;spacingLeft=5;spacing=0;labelBackgroundColor=#18141D;labelBorderColor=none;fillColor=#18141D;strokeColor=#D1D5DB;strokeWidth=1;movable=0;resizable=0;rotatable=0;deletable=0;fontColor=#d1d5db;html=1;" parent="19" vertex="1">
                    <mxGeometry width="80" height="30" as="geometry">
                        <mxRectangle width="80" height="30" as="alternateBounds"/>
                    </mxGeometry>
                </mxCell>
                <mxCell id="21" value="DateTimeField" style="shape=partialRectangle;connectable=0;top=0;left=1;bottom=1;right=1;align=left;spacingLeft=5;overflow=hidden;fontSize=10;fontStyle=0;fontFamily=Verdana;verticalAlign=middle;spacing=0;labelBackgroundColor=#18141D;labelBorderColor=none;fillColor=#18141D;strokeColor=#D1D5DB;strokeWidth=1;movable=0;resizable=0;rotatable=0;deletable=0;editable=0;fontColor=#d1d5db;html=1;" parent="19" vertex="1">
                    <mxGeometry x="80" width="90" height="30" as="geometry">
                        <mxRectangle width="90" height="30" as="alternateBounds"/>
                    </mxGeometry>
                </mxCell>
                <mxCell id="22" value="Automatically updated to the date and time when the profile is updated." style="shape=partialRectangle;connectable=0;top=0;left=1;bottom=1;right=1;align=left;spacingLeft=5;overflow=hidden;fontSize=10;verticalAlign=middle;fontStyle=0;fontFamily=Verdana;labelBackgroundColor=#18141D;spacing=0;labelBorderColor=none;strokeWidth=1;fillColor=#18141D;strokeColor=#D1D5DB;movable=0;resizable=0;rotatable=0;deletable=0;editable=0;fontColor=#d1d5db;html=1;" parent="19" vertex="1">
                    <mxGeometry x="170" width="400" height="30" as="geometry">
                        <mxRectangle width="400" height="30" as="alternateBounds"/>
                    </mxGeometry>
                </mxCell>
                <mxCell id="23" value="" style="shape=tableRow;horizontal=0;startSize=0;swimlaneHead=0;swimlaneBody=0;collapsible=0;dropTarget=0;points=[[0,0.5],[1,0.5]];portConstraint=eastwest;top=0;left=0;right=0;bottom=0;align=left;fontSize=11;fontStyle=0;fontFamily=Verdana;verticalAlign=middle;spacing=0;spacingLeft=0;labelBackgroundColor=#18141D;labelBorderColor=none;fillColor=#18141D;movable=0;resizable=0;rotatable=0;deletable=0;editable=0;connectable=0;fontColor=#d1d5db;html=1;strokeColor=#D1D5DB;strokeWidth=1;" parent="2" vertex="1">
                    <mxGeometry y="180" width="570" height="30" as="geometry"/>
                </mxCell>
                <mxCell id="24" value="name" style="shape=partialRectangle;connectable=0;top=0;left=1;bottom=1;right=1;editable=0;overflow=hidden;align=left;fontSize=10;fontStyle=0;fontFamily=Verdana;verticalAlign=middle;spacingLeft=5;spacing=0;labelBackgroundColor=#18141D;labelBorderColor=none;fillColor=#18141D;strokeColor=#D1D5DB;strokeWidth=1;movable=0;resizable=0;rotatable=0;deletable=0;fontColor=#d1d5db;html=1;" parent="23" vertex="1">
                    <mxGeometry width="80" height="30" as="geometry">
                        <mxRectangle width="80" height="30" as="alternateBounds"/>
                    </mxGeometry>
                </mxCell>
                <mxCell id="25" value="CharField" style="shape=partialRectangle;connectable=0;top=0;left=1;bottom=1;right=1;align=left;spacingLeft=5;overflow=hidden;fontSize=10;fontStyle=0;fontFamily=Verdana;verticalAlign=middle;spacing=0;labelBackgroundColor=#18141D;labelBorderColor=none;fillColor=#18141D;strokeColor=#D1D5DB;strokeWidth=1;movable=0;resizable=0;rotatable=0;deletable=0;editable=0;fontColor=#d1d5db;html=1;" parent="23" vertex="1">
                    <mxGeometry x="80" width="90" height="30" as="geometry">
                        <mxRectangle width="90" height="30" as="alternateBounds"/>
                    </mxGeometry>
                </mxCell>
                <mxCell id="26" value="Optional name field, can be left blank. Max length of 255 characters." style="shape=partialRectangle;connectable=0;top=0;left=1;bottom=1;right=1;align=left;spacingLeft=5;overflow=hidden;fontSize=10;fontStyle=0;fontFamily=Verdana;verticalAlign=middle;labelBackgroundColor=#18141D;spacing=0;labelBorderColor=none;fillColor=#18141D;strokeColor=#D1D5DB;strokeWidth=1;movable=0;resizable=0;rotatable=0;deletable=0;editable=0;fontColor=#d1d5db;html=1;" parent="23" vertex="1">
                    <mxGeometry x="170" width="400" height="30" as="geometry">
                        <mxRectangle width="400" height="30" as="alternateBounds"/>
                    </mxGeometry>
                </mxCell>
                <mxCell id="27" value="" style="shape=tableRow;horizontal=0;startSize=0;swimlaneHead=0;swimlaneBody=0;collapsible=0;dropTarget=0;points=[[0,0.5],[1,0.5]];portConstraint=eastwest;top=0;left=0;right=0;bottom=0;align=left;fontSize=11;fontStyle=0;fontFamily=Verdana;verticalAlign=middle;spacing=0;spacingLeft=0;labelBackgroundColor=#18141D;labelBorderColor=none;fillColor=#18141D;movable=0;resizable=0;rotatable=0;deletable=0;editable=0;connectable=0;fontColor=#d1d5db;html=1;strokeColor=#D1D5DB;strokeWidth=1;" parent="2" vertex="1">
                    <mxGeometry y="210" width="570" height="30" as="geometry"/>
                </mxCell>
                <mxCell id="28" value="content" style="shape=partialRectangle;connectable=0;top=0;left=1;bottom=1;right=1;editable=0;overflow=hidden;align=left;fontSize=10;fontStyle=0;fontFamily=Verdana;verticalAlign=middle;spacingLeft=5;spacing=0;labelBackgroundColor=#18141D;labelBorderColor=none;fillColor=#18141D;strokeColor=#D1D5DB;strokeWidth=1;movable=0;resizable=0;rotatable=0;deletable=0;fontColor=#d1d5db;html=1;" parent="27" vertex="1">
                    <mxGeometry width="80" height="30" as="geometry">
                        <mxRectangle width="80" height="30" as="alternateBounds"/>
                    </mxGeometry>
                </mxCell>
                <mxCell id="29" value="TextField" style="shape=partialRectangle;connectable=0;top=0;left=1;bottom=1;right=1;align=left;spacingLeft=5;overflow=hidden;fontSize=10;fontStyle=0;fontFamily=Verdana;verticalAlign=middle;spacing=0;labelBackgroundColor=#18141D;labelBorderColor=none;fillColor=#18141D;strokeColor=#D1D5DB;strokeWidth=1;movable=0;resizable=0;rotatable=0;deletable=0;editable=0;fontColor=#d1d5db;html=1;" parent="27" vertex="1">
                    <mxGeometry x="80" width="90" height="30" as="geometry">
                        <mxRectangle width="90" height="30" as="alternateBounds"/>
                    </mxGeometry>
                </mxCell>
                <mxCell id="30" value="Optional content field, can be left blank." style="shape=partialRectangle;connectable=0;top=0;left=1;bottom=1;right=1;align=left;spacingLeft=5;overflow=hidden;fontSize=10;fontStyle=0;fontFamily=Verdana;verticalAlign=middle;labelBackgroundColor=#18141D;spacing=0;labelBorderColor=none;fillColor=#18141D;strokeColor=#D1D5DB;strokeWidth=1;movable=0;resizable=0;rotatable=0;deletable=0;editable=0;fontColor=#d1d5db;html=1;" parent="27" vertex="1">
                    <mxGeometry x="170" width="400" height="30" as="geometry">
                        <mxRectangle width="400" height="30" as="alternateBounds"/>
                    </mxGeometry>
                </mxCell>
                <mxCell id="31" value="" style="shape=tableRow;horizontal=0;startSize=0;swimlaneHead=0;swimlaneBody=0;collapsible=0;dropTarget=0;points=[[0,0.5],[1,0.5]];portConstraint=eastwest;top=0;left=0;right=0;bottom=0;align=left;fontSize=11;fontStyle=0;fontFamily=Verdana;verticalAlign=middle;spacing=0;spacingLeft=0;labelBackgroundColor=#18141D;labelBorderColor=none;fillColor=#18141D;movable=0;resizable=0;rotatable=0;deletable=0;editable=0;connectable=0;fontColor=#d1d5db;html=1;strokeColor=#D1D5DB;strokeWidth=1;" parent="2" vertex="1">
                    <mxGeometry y="240" width="570" height="30" as="geometry"/>
                </mxCell>
                <mxCell id="32" value="image" style="shape=partialRectangle;connectable=0;top=0;left=1;bottom=1;right=1;editable=0;overflow=hidden;align=left;fontSize=10;fontStyle=0;fontFamily=Verdana;verticalAlign=middle;spacingLeft=5;spacing=0;labelBackgroundColor=#18141D;labelBorderColor=none;fillColor=#18141D;strokeColor=#D1D5DB;strokeWidth=1;movable=0;resizable=0;rotatable=0;deletable=0;fontColor=#d1d5db;html=1;" parent="31" vertex="1">
                    <mxGeometry width="80" height="30" as="geometry">
                        <mxRectangle width="80" height="30" as="alternateBounds"/>
                    </mxGeometry>
                </mxCell>
                <mxCell id="33" value="ImageField" style="shape=partialRectangle;connectable=0;top=0;left=1;bottom=1;right=1;align=left;spacingLeft=5;overflow=hidden;fontSize=10;fontStyle=0;fontFamily=Verdana;verticalAlign=middle;spacing=0;labelBackgroundColor=#18141D;labelBorderColor=none;fillColor=#18141D;strokeColor=#D1D5DB;strokeWidth=1;movable=0;resizable=0;rotatable=0;deletable=0;editable=0;fontColor=#d1d5db;html=1;" parent="31" vertex="1">
                    <mxGeometry x="80" width="90" height="30" as="geometry">
                        <mxRectangle width="90" height="30" as="alternateBounds"/>
                    </mxGeometry>
                </mxCell>
                <mxCell id="34" value="Profile image, with a default and specific upload path." style="shape=partialRectangle;connectable=0;top=0;left=1;bottom=1;right=1;align=left;spacingLeft=5;overflow=hidden;fontSize=10;fontStyle=0;fontFamily=Verdana;verticalAlign=middle;labelBackgroundColor=#18141D;spacing=0;labelBorderColor=none;fillColor=#18141D;strokeColor=#D1D5DB;strokeWidth=1;movable=0;resizable=0;rotatable=0;deletable=0;editable=0;fontColor=#d1d5db;html=1;" parent="31" vertex="1">
                    <mxGeometry x="170" width="400" height="30" as="geometry">
                        <mxRectangle width="400" height="30" as="alternateBounds"/>
                    </mxGeometry>
                </mxCell>
                <mxCell id="35" value="&lt;font color=&quot;#ffffff&quot;&gt;Likes model&lt;/font&gt;" style="shape=table;startSize=30;container=1;collapsible=1;childLayout=tableLayout;fixedRows=1;rowLines=0;fontStyle=4;align=center;resizeLast=1;fontSize=20;labelPosition=center;verticalLabelPosition=middle;verticalAlign=middle;labelBackgroundColor=#18141D;horizontal=1;spacingLeft=0;fontFamily=Verdana;fontColor=#d1d5db;spacing=0;movable=0;resizable=0;rotatable=0;deletable=0;editable=0;connectable=0;labelBorderColor=none;fillColor=#18141D;html=1;strokeColor=#D1D5DB;strokeWidth=1;" parent="1" vertex="1">
                    <mxGeometry x="-4160" y="-1920" width="500" height="180" as="geometry"/>
                </mxCell>
                <mxCell id="36" value="" style="shape=tableRow;horizontal=0;startSize=0;swimlaneHead=0;swimlaneBody=0;fillColor=#18141D;collapsible=0;dropTarget=0;points=[[0,0.5],[1,0.5]];portConstraint=eastwest;top=0;left=0;right=0;bottom=1;align=left;fontSize=11;fontStyle=0;fontFamily=Verdana;verticalAlign=middle;spacing=0;spacingLeft=0;labelBackgroundColor=#18141D;labelBorderColor=none;movable=0;resizable=0;rotatable=0;deletable=0;editable=0;connectable=0;fontColor=#d1d5db;html=1;strokeColor=#D1D5DB;strokeWidth=1;" parent="35" vertex="1">
                    <mxGeometry y="30" width="500" height="30" as="geometry"/>
                </mxCell>
                <mxCell id="37" value="Name" style="shape=partialRectangle;connectable=0;top=1;left=1;bottom=1;right=1;fontStyle=4;overflow=hidden;align=left;fontSize=12;fontFamily=Verdana;verticalAlign=middle;spacingLeft=5;spacing=0;labelBackgroundColor=#18141D;labelBorderColor=none;shadow=0;movable=0;resizable=0;rotatable=0;deletable=0;editable=0;fillColor=#18141D;fontColor=#d1d5db;html=1;strokeColor=#D1D5DB;strokeWidth=1;" parent="36" vertex="1">
                    <mxGeometry width="80" height="30" as="geometry">
                        <mxRectangle width="80" height="30" as="alternateBounds"/>
                    </mxGeometry>
                </mxCell>
                <mxCell id="38" value="Type" style="shape=partialRectangle;connectable=0;top=1;left=1;bottom=1;right=1;align=left;spacingLeft=5;fontStyle=4;overflow=hidden;fontSize=12;fontFamily=Verdana;verticalAlign=middle;spacing=0;labelBackgroundColor=#18141D;labelBorderColor=none;shadow=0;movable=0;resizable=0;rotatable=0;deletable=0;editable=0;fillColor=#18141D;fontColor=#d1d5db;html=1;strokeColor=#D1D5DB;strokeWidth=1;" parent="36" vertex="1">
                    <mxGeometry x="80" width="90" height="30" as="geometry">
                        <mxRectangle width="90" height="30" as="alternateBounds"/>
                    </mxGeometry>
                </mxCell>
                <mxCell id="39" value="Description" style="shape=partialRectangle;connectable=0;top=1;left=1;bottom=1;right=1;align=left;spacingLeft=5;fontStyle=4;overflow=hidden;fontSize=12;fontFamily=Verdana;verticalAlign=middle;spacing=0;labelBackgroundColor=#18141D;labelBorderColor=none;shadow=0;movable=0;resizable=0;rotatable=0;deletable=0;editable=0;fillColor=#18141D;fontColor=#d1d5db;html=1;strokeColor=#D1D5DB;strokeWidth=1;" parent="36" vertex="1">
                    <mxGeometry x="170" width="330" height="30" as="geometry">
                        <mxRectangle width="330" height="30" as="alternateBounds"/>
                    </mxGeometry>
                </mxCell>
                <mxCell id="40" value="" style="shape=tableRow;horizontal=0;startSize=0;swimlaneHead=0;swimlaneBody=0;fillColor=#18141D;collapsible=0;dropTarget=0;points=[[0,0.5],[1,0.5]];portConstraint=eastwest;top=0;left=0;right=0;bottom=1;align=left;fontSize=11;fontStyle=0;fontFamily=Verdana;verticalAlign=middle;spacing=0;spacingLeft=0;labelBackgroundColor=#18141D;labelBorderColor=none;movable=0;resizable=0;rotatable=0;deletable=0;editable=0;connectable=0;fontColor=#d1d5db;html=1;strokeColor=#D1D5DB;strokeWidth=1;" parent="35" vertex="1">
                    <mxGeometry y="60" width="500" height="30" as="geometry"/>
                </mxCell>
                <mxCell id="41" value="id" style="shape=partialRectangle;connectable=0;top=1;left=1;bottom=1;right=1;fontStyle=4;overflow=hidden;align=left;fontSize=10;fontFamily=Verdana;verticalAlign=middle;spacingLeft=5;spacing=0;labelBackgroundColor=#18141D;labelBorderColor=none;shadow=0;movable=0;resizable=0;rotatable=0;deletable=0;editable=0;fillColor=#18141D;fontColor=#d1d5db;html=1;strokeColor=#D1D5DB;strokeWidth=1;" parent="40" vertex="1">
                    <mxGeometry width="80" height="30" as="geometry">
                        <mxRectangle width="80" height="30" as="alternateBounds"/>
                    </mxGeometry>
                </mxCell>
                <mxCell id="42" value="Primary Key" style="shape=partialRectangle;connectable=0;top=1;left=1;bottom=1;right=1;align=left;spacingLeft=5;fontStyle=4;overflow=hidden;fontSize=10;fontFamily=Verdana;verticalAlign=middle;spacing=0;labelBackgroundColor=#18141D;labelBorderColor=none;shadow=0;movable=0;resizable=0;rotatable=0;deletable=0;editable=0;fillColor=#18141D;fontColor=#d1d5db;html=1;strokeColor=#D1D5DB;strokeWidth=1;" parent="40" vertex="1">
                    <mxGeometry x="80" width="90" height="30" as="geometry">
                        <mxRectangle width="90" height="30" as="alternateBounds"/>
                    </mxGeometry>
                </mxCell>
                <mxCell id="43" value="Unique identifier for each like." style="shape=partialRectangle;connectable=0;top=1;left=1;bottom=1;right=1;align=left;spacingLeft=5;fontStyle=4;overflow=hidden;fontSize=10;fontFamily=Verdana;verticalAlign=middle;spacing=0;labelBackgroundColor=#18141D;labelBorderColor=none;shadow=0;movable=0;resizable=0;rotatable=0;deletable=0;editable=0;fillColor=#18141D;fontColor=#d1d5db;html=1;strokeColor=#D1D5DB;strokeWidth=1;" parent="40" vertex="1">
                    <mxGeometry x="170" width="330" height="30" as="geometry">
                        <mxRectangle width="330" height="30" as="alternateBounds"/>
                    </mxGeometry>
                </mxCell>
                <mxCell id="44" value="" style="shape=tableRow;horizontal=0;startSize=0;swimlaneHead=0;swimlaneBody=0;fillColor=#18141D;collapsible=0;dropTarget=0;points=[[0,0.5],[1,0.5]];portConstraint=eastwest;top=0;left=0;right=0;bottom=0;align=left;fontSize=10;fontStyle=0;fontFamily=Verdana;labelBackgroundColor=#18141D;fontColor=#d1d5db;verticalAlign=middle;spacing=0;spacingLeft=0;labelBorderColor=none;movable=0;resizable=0;rotatable=0;deletable=0;editable=0;connectable=0;html=1;strokeColor=#D1D5DB;strokeWidth=1;" parent="35" vertex="1">
                    <mxGeometry y="90" width="500" height="30" as="geometry"/>
                </mxCell>
                <mxCell id="45" value="owner" style="shape=partialRectangle;connectable=0;top=1;left=1;bottom=1;right=1;editable=0;overflow=hidden;align=left;fontSize=10;fontStyle=0;fontFamily=Verdana;verticalAlign=middle;spacingLeft=5;spacing=0;labelBackgroundColor=#18141D;labelBorderColor=none;flipH=0;flipV=0;shadow=0;movable=0;resizable=0;rotatable=0;deletable=0;fillColor=#18141D;fontColor=#d1d5db;html=1;strokeColor=#D1D5DB;strokeWidth=1;" parent="44" vertex="1">
                    <mxGeometry width="80" height="30" as="geometry">
                        <mxRectangle width="80" height="30" as="alternateBounds"/>
                    </mxGeometry>
                </mxCell>
                <mxCell id="46" value="Foreign Key" style="shape=partialRectangle;connectable=0;top=1;left=1;bottom=1;right=1;align=left;spacingLeft=5;overflow=hidden;fontSize=10;fontStyle=0;fontFamily=Verdana;verticalAlign=middle;spacing=0;labelBackgroundColor=#18141D;labelBorderColor=none;flipH=0;flipV=0;shadow=0;movable=0;resizable=0;rotatable=0;deletable=0;editable=0;fillColor=#18141D;fontColor=#d1d5db;html=1;strokeColor=#D1D5DB;strokeWidth=1;" parent="44" vertex="1">
                    <mxGeometry x="80" width="90" height="30" as="geometry">
                        <mxRectangle width="90" height="30" as="alternateBounds"/>
                    </mxGeometry>
                </mxCell>
                <mxCell id="47" value="Links to the User model, many-to-one relationship." style="shape=partialRectangle;connectable=0;top=1;left=1;bottom=1;right=1;align=left;spacingLeft=5;overflow=hidden;fontSize=10;fontStyle=0;fontFamily=Verdana;verticalAlign=middle;labelBackgroundColor=#18141D;spacing=0;labelBorderColor=none;flipH=0;flipV=0;shadow=0;movable=0;resizable=0;rotatable=0;deletable=0;editable=0;fillColor=#18141D;fontColor=#d1d5db;html=1;strokeColor=#D1D5DB;strokeWidth=1;" parent="44" vertex="1">
                    <mxGeometry x="170" width="330" height="30" as="geometry">
                        <mxRectangle width="330" height="30" as="alternateBounds"/>
                    </mxGeometry>
                </mxCell>
                <mxCell id="48" value="" style="shape=tableRow;horizontal=0;startSize=0;swimlaneHead=0;swimlaneBody=0;fillColor=#18141D;collapsible=0;dropTarget=0;points=[[0,0.5],[1,0.5]];portConstraint=eastwest;top=0;left=0;right=0;bottom=0;align=left;fontSize=10;fontStyle=0;fontFamily=Verdana;labelBackgroundColor=#18141D;fontColor=#d1d5db;verticalAlign=middle;spacing=0;spacingLeft=0;labelBorderColor=none;movable=0;resizable=0;rotatable=0;deletable=0;editable=0;connectable=0;html=1;strokeColor=#D1D5DB;strokeWidth=1;" parent="35" vertex="1">
                    <mxGeometry y="120" width="500" height="30" as="geometry"/>
                </mxCell>
                <mxCell id="49" value="post" style="shape=partialRectangle;connectable=0;top=1;left=1;bottom=1;right=1;editable=0;overflow=hidden;align=left;fontSize=10;fontStyle=0;fontFamily=Verdana;verticalAlign=middle;spacingLeft=5;spacing=0;labelBackgroundColor=#18141D;labelBorderColor=none;flipH=0;flipV=0;shadow=0;movable=0;resizable=0;rotatable=0;deletable=0;fillColor=#18141D;fontColor=#d1d5db;html=1;strokeColor=#D1D5DB;strokeWidth=1;" parent="48" vertex="1">
                    <mxGeometry width="80" height="30" as="geometry">
                        <mxRectangle width="80" height="30" as="alternateBounds"/>
                    </mxGeometry>
                </mxCell>
                <mxCell id="50" value="Foreign Key" style="shape=partialRectangle;connectable=0;top=1;left=1;bottom=1;right=1;align=left;spacingLeft=5;overflow=hidden;fontSize=10;fontStyle=0;fontFamily=Verdana;verticalAlign=middle;spacing=0;labelBackgroundColor=#18141D;labelBorderColor=none;flipH=0;flipV=0;shadow=0;movable=0;resizable=0;rotatable=0;deletable=0;editable=0;fillColor=#18141D;fontColor=#d1d5db;html=1;strokeColor=#D1D5DB;strokeWidth=1;" parent="48" vertex="1">
                    <mxGeometry x="80" width="90" height="30" as="geometry">
                        <mxRectangle width="90" height="30" as="alternateBounds"/>
                    </mxGeometry>
                </mxCell>
                <mxCell id="51" value="Links to the Post model, many-to-one relationship." style="shape=partialRectangle;connectable=0;top=1;left=1;bottom=1;right=1;align=left;spacingLeft=5;overflow=hidden;fontSize=10;fontStyle=0;fontFamily=Verdana;verticalAlign=middle;labelBackgroundColor=#18141D;spacing=0;labelBorderColor=none;flipH=0;flipV=0;shadow=0;movable=0;resizable=0;rotatable=0;deletable=0;editable=0;fillColor=#18141D;fontColor=#d1d5db;html=1;strokeColor=#D1D5DB;strokeWidth=1;" parent="48" vertex="1">
                    <mxGeometry x="170" width="330" height="30" as="geometry">
                        <mxRectangle width="330" height="30" as="alternateBounds"/>
                    </mxGeometry>
                </mxCell>
                <mxCell id="52" value="" style="shape=tableRow;horizontal=0;startSize=0;swimlaneHead=0;swimlaneBody=0;fillColor=#18141D;collapsible=0;dropTarget=0;points=[[0,0.5],[1,0.5]];portConstraint=eastwest;top=0;left=0;right=0;bottom=0;align=left;fontSize=10;fontStyle=0;fontFamily=Verdana;verticalAlign=middle;spacing=0;spacingLeft=0;labelBackgroundColor=#18141D;labelBorderColor=none;movable=0;resizable=0;rotatable=0;deletable=0;editable=0;connectable=0;fontColor=#d1d5db;html=1;strokeColor=#D1D5DB;strokeWidth=1;" parent="35" vertex="1">
                    <mxGeometry y="150" width="500" height="30" as="geometry"/>
                </mxCell>
                <mxCell id="53" value="created_at" style="shape=partialRectangle;connectable=0;top=1;left=1;bottom=1;right=1;editable=0;overflow=hidden;align=left;fontSize=10;fontStyle=0;fontFamily=Verdana;verticalAlign=middle;spacingLeft=5;spacing=0;labelBackgroundColor=#18141D;labelBorderColor=none;flipH=0;flipV=0;shadow=0;movable=0;resizable=0;rotatable=0;deletable=0;fillColor=#18141D;fontColor=#d1d5db;html=1;strokeColor=#D1D5DB;strokeWidth=1;" parent="52" vertex="1">
                    <mxGeometry width="80" height="30" as="geometry">
                        <mxRectangle width="80" height="30" as="alternateBounds"/>
                    </mxGeometry>
                </mxCell>
                <mxCell id="54" value="DateTimeField" style="shape=partialRectangle;connectable=0;top=1;left=1;bottom=1;right=1;align=left;spacingLeft=5;overflow=hidden;fontSize=10;fontStyle=0;fontFamily=Verdana;verticalAlign=middle;spacing=0;labelBackgroundColor=#18141D;labelBorderColor=none;flipH=0;flipV=0;shadow=0;movable=0;resizable=0;rotatable=0;deletable=0;editable=0;fillColor=#18141D;fontColor=#d1d5db;html=1;strokeColor=#D1D5DB;strokeWidth=1;" parent="52" vertex="1">
                    <mxGeometry x="80" width="90" height="30" as="geometry">
                        <mxRectangle width="90" height="30" as="alternateBounds"/>
                    </mxGeometry>
                </mxCell>
                <mxCell id="55" value="Date and time when the like is created, set automatically" style="shape=partialRectangle;connectable=0;top=1;left=1;bottom=1;right=1;align=left;spacingLeft=5;overflow=hidden;fontSize=10;verticalAlign=middle;fontStyle=0;fontFamily=Verdana;labelBackgroundColor=#18141D;spacing=0;labelBorderColor=none;flipH=0;flipV=0;shadow=0;movable=0;resizable=0;rotatable=0;deletable=0;editable=0;fillColor=#18141D;fontColor=#d1d5db;html=1;strokeColor=#D1D5DB;strokeWidth=1;" parent="52" vertex="1">
                    <mxGeometry x="170" width="330" height="30" as="geometry">
                        <mxRectangle width="330" height="30" as="alternateBounds"/>
                    </mxGeometry>
                </mxCell>
                <mxCell id="56" value="&lt;font color=&quot;#ffffff&quot; style=&quot;font-size: 20px;&quot;&gt;Comments model&lt;/font&gt;" style="shape=table;startSize=30;container=1;collapsible=1;childLayout=tableLayout;fixedRows=1;rowLines=0;fontStyle=4;align=center;resizeLast=1;fontSize=11;labelPosition=center;verticalLabelPosition=middle;verticalAlign=middle;labelBackgroundColor=#18141D;horizontal=1;spacingLeft=0;fontFamily=Verdana;fontColor=#d1d5db;spacing=0;movable=0;resizable=0;rotatable=0;deletable=0;editable=0;connectable=0;labelBorderColor=none;swimlaneFillColor=default;strokeColor=#D1D5DB;strokeWidth=1;perimeterSpacing=0;fillColor=#18141D;html=1;" parent="1" vertex="1">
                    <mxGeometry x="-4160" y="-2280" width="520" height="240" as="geometry"/>
                </mxCell>
                <mxCell id="57" value="" style="shape=tableRow;horizontal=0;startSize=0;swimlaneHead=0;swimlaneBody=0;fillColor=#18141D;collapsible=0;dropTarget=0;points=[[0,0.5],[1,0.5]];portConstraint=eastwest;top=0;left=0;right=0;bottom=1;align=left;fontSize=13;fontStyle=0;fontFamily=Verdana;verticalAlign=middle;spacing=0;spacingLeft=0;labelBackgroundColor=#18141D;labelBorderColor=none;movable=0;resizable=0;rotatable=0;deletable=0;editable=0;connectable=0;fontColor=#d1d5db;html=1;strokeColor=#D1D5DB;strokeWidth=1;" parent="56" vertex="1">
                    <mxGeometry y="30" width="520" height="30" as="geometry"/>
                </mxCell>
                <mxCell id="58" value="Name" style="shape=partialRectangle;connectable=0;fillColor=#18141D;top=1;left=1;bottom=1;right=1;fontStyle=4;overflow=hidden;align=left;fontSize=12;fontFamily=Verdana;verticalAlign=middle;spacingLeft=5;spacing=0;labelBackgroundColor=#18141D;labelBorderColor=none;fontColor=#d1d5db;strokeColor=#D1D5DB;movable=0;resizable=0;rotatable=0;deletable=0;editable=0;html=1;strokeWidth=1;" parent="57" vertex="1">
                    <mxGeometry width="80" height="30" as="geometry">
                        <mxRectangle width="80" height="30" as="alternateBounds"/>
                    </mxGeometry>
                </mxCell>
                <mxCell id="59" value="Type" style="shape=partialRectangle;connectable=0;fillColor=#18141D;top=1;left=1;bottom=1;right=1;align=left;spacingLeft=5;fontStyle=4;overflow=hidden;fontSize=12;fontFamily=Verdana;verticalAlign=middle;spacing=0;labelBackgroundColor=#18141D;labelBorderColor=none;fontColor=#d1d5db;strokeColor=#D1D5DB;movable=0;resizable=0;rotatable=0;deletable=0;editable=0;html=1;strokeWidth=1;" parent="57" vertex="1">
                    <mxGeometry x="80" width="90" height="30" as="geometry">
                        <mxRectangle width="90" height="30" as="alternateBounds"/>
                    </mxGeometry>
                </mxCell>
                <mxCell id="60" value="Description" style="shape=partialRectangle;connectable=0;fillColor=#18141D;top=1;left=1;bottom=1;right=1;align=left;spacingLeft=5;fontStyle=4;overflow=hidden;fontSize=12;fontFamily=Verdana;verticalAlign=middle;spacing=0;labelBackgroundColor=#18141D;labelBorderColor=none;fontColor=#d1d5db;strokeColor=#D1D5DB;movable=0;resizable=0;rotatable=0;deletable=0;editable=0;html=1;strokeWidth=1;" parent="57" vertex="1">
                    <mxGeometry x="170" width="350" height="30" as="geometry">
                        <mxRectangle width="350" height="30" as="alternateBounds"/>
                    </mxGeometry>
                </mxCell>
                <mxCell id="61" value="" style="shape=tableRow;horizontal=0;startSize=0;swimlaneHead=0;swimlaneBody=0;fillColor=#18141D;collapsible=0;dropTarget=0;points=[[0,0.5],[1,0.5]];portConstraint=eastwest;top=0;left=0;right=0;bottom=1;align=left;fontSize=13;fontStyle=0;fontFamily=Verdana;verticalAlign=middle;spacing=0;spacingLeft=0;labelBackgroundColor=#18141D;labelBorderColor=none;movable=0;resizable=0;rotatable=0;deletable=0;editable=0;connectable=0;fontColor=#d1d5db;html=1;strokeColor=#D1D5DB;strokeWidth=1;" parent="56" vertex="1">
                    <mxGeometry y="60" width="520" height="30" as="geometry"/>
                </mxCell>
                <mxCell id="62" value="id" style="shape=partialRectangle;connectable=0;fillColor=#18141D;top=1;left=1;bottom=1;right=1;fontStyle=4;overflow=hidden;align=left;fontSize=10;fontFamily=Verdana;verticalAlign=middle;spacingLeft=5;spacing=0;labelBackgroundColor=#18141D;labelBorderColor=none;fontColor=#d1d5db;strokeColor=#D1D5DB;movable=0;resizable=0;rotatable=0;deletable=0;editable=0;html=1;strokeWidth=1;" parent="61" vertex="1">
                    <mxGeometry width="80" height="30" as="geometry">
                        <mxRectangle width="80" height="30" as="alternateBounds"/>
                    </mxGeometry>
                </mxCell>
                <mxCell id="63" value="Primary Key" style="shape=partialRectangle;connectable=0;fillColor=#18141D;top=1;left=1;bottom=1;right=1;align=left;spacingLeft=5;fontStyle=4;overflow=hidden;fontSize=10;fontFamily=Verdana;verticalAlign=middle;spacing=0;labelBackgroundColor=#18141D;labelBorderColor=none;fontColor=#d1d5db;strokeColor=#D1D5DB;movable=0;resizable=0;rotatable=0;deletable=0;editable=0;html=1;strokeWidth=1;" parent="61" vertex="1">
                    <mxGeometry x="80" width="90" height="30" as="geometry">
                        <mxRectangle width="90" height="30" as="alternateBounds"/>
                    </mxGeometry>
                </mxCell>
                <mxCell id="64" value="Unique identifier for each comment." style="shape=partialRectangle;connectable=0;fillColor=#18141D;top=1;left=1;bottom=1;right=1;align=left;spacingLeft=5;fontStyle=4;overflow=hidden;fontSize=10;fontFamily=Verdana;verticalAlign=middle;spacing=0;labelBackgroundColor=#18141D;labelBorderColor=none;fontColor=#d1d5db;strokeColor=#D1D5DB;movable=0;resizable=0;rotatable=0;deletable=0;editable=0;html=1;strokeWidth=1;" parent="61" vertex="1">
                    <mxGeometry x="170" width="350" height="30" as="geometry">
                        <mxRectangle width="350" height="30" as="alternateBounds"/>
                    </mxGeometry>
                </mxCell>
                <mxCell id="65" value="" style="shape=tableRow;horizontal=0;startSize=0;swimlaneHead=0;swimlaneBody=0;fillColor=#18141D;collapsible=0;dropTarget=0;points=[[0,0.5],[1,0.5]];portConstraint=eastwest;top=0;left=0;right=0;bottom=0;align=left;fontSize=11;fontStyle=0;fontFamily=Verdana;labelBackgroundColor=#18141D;fontColor=#d1d5db;verticalAlign=middle;spacing=0;spacingLeft=0;labelBorderColor=none;movable=0;resizable=0;rotatable=0;deletable=0;editable=0;connectable=0;html=1;strokeColor=#D1D5DB;strokeWidth=1;" parent="56" vertex="1">
                    <mxGeometry y="90" width="520" height="30" as="geometry"/>
                </mxCell>
                <mxCell id="66" value="owner" style="shape=partialRectangle;connectable=0;top=1;left=1;bottom=1;right=1;editable=0;overflow=hidden;align=left;fontSize=10;fontStyle=0;fontFamily=Verdana;verticalAlign=middle;spacingLeft=5;spacing=0;labelBackgroundColor=#18141D;labelBorderColor=none;fillColor=#18141D;movable=0;resizable=0;rotatable=0;deletable=0;fontColor=#d1d5db;html=1;strokeColor=#D1D5DB;strokeWidth=1;" parent="65" vertex="1">
                    <mxGeometry width="80" height="30" as="geometry">
                        <mxRectangle width="80" height="30" as="alternateBounds"/>
                    </mxGeometry>
                </mxCell>
                <mxCell id="67" value="ForeignKey" style="shape=partialRectangle;connectable=0;top=1;left=1;bottom=1;right=1;align=left;spacingLeft=5;overflow=hidden;fontSize=10;fontStyle=0;fontFamily=Verdana;verticalAlign=middle;spacing=0;labelBackgroundColor=#18141D;labelBorderColor=none;fillColor=#18141D;movable=0;resizable=0;rotatable=0;deletable=0;editable=0;fontColor=#d1d5db;html=1;strokeColor=#D1D5DB;strokeWidth=1;" parent="65" vertex="1">
                    <mxGeometry x="80" width="90" height="30" as="geometry">
                        <mxRectangle width="90" height="30" as="alternateBounds"/>
                    </mxGeometry>
                </mxCell>
                <mxCell id="68" value="Links to the User model, many-to-one relationship." style="shape=partialRectangle;connectable=0;top=1;left=1;bottom=1;right=1;align=left;spacingLeft=5;overflow=hidden;fontSize=10;fontStyle=0;fontFamily=Verdana;verticalAlign=middle;labelBackgroundColor=#18141D;spacing=0;labelBorderColor=none;fillColor=#18141D;movable=0;resizable=0;rotatable=0;deletable=0;editable=0;fontColor=#d1d5db;html=1;strokeColor=#D1D5DB;strokeWidth=1;" parent="65" vertex="1">
                    <mxGeometry x="170" width="350" height="30" as="geometry">
                        <mxRectangle width="350" height="30" as="alternateBounds"/>
                    </mxGeometry>
                </mxCell>
                <mxCell id="69" value="" style="shape=tableRow;horizontal=0;startSize=0;swimlaneHead=0;swimlaneBody=0;fillColor=#18141D;collapsible=0;dropTarget=0;points=[[0,0.5],[1,0.5]];portConstraint=eastwest;top=0;left=0;right=0;bottom=0;align=left;fontSize=11;fontStyle=0;fontFamily=Verdana;labelBackgroundColor=#18141D;fontColor=#d1d5db;verticalAlign=middle;spacing=0;spacingLeft=0;labelBorderColor=none;movable=0;resizable=0;rotatable=0;deletable=0;editable=0;connectable=0;html=1;strokeColor=#D1D5DB;strokeWidth=1;" parent="56" vertex="1">
                    <mxGeometry y="120" width="520" height="30" as="geometry"/>
                </mxCell>
                <mxCell id="70" value="post" style="shape=partialRectangle;connectable=0;top=1;left=1;bottom=1;right=1;editable=0;overflow=hidden;align=left;fontSize=10;fontStyle=0;fontFamily=Verdana;verticalAlign=middle;spacingLeft=5;spacing=0;labelBackgroundColor=#18141D;labelBorderColor=none;fillColor=#18141D;movable=0;resizable=0;rotatable=0;deletable=0;fontColor=#d1d5db;html=1;strokeColor=#D1D5DB;strokeWidth=1;" parent="69" vertex="1">
                    <mxGeometry width="80" height="30" as="geometry">
                        <mxRectangle width="80" height="30" as="alternateBounds"/>
                    </mxGeometry>
                </mxCell>
                <mxCell id="71" value="ForeignKey" style="shape=partialRectangle;connectable=0;top=1;left=1;bottom=1;right=1;align=left;spacingLeft=5;overflow=hidden;fontSize=10;fontStyle=0;fontFamily=Verdana;verticalAlign=middle;spacing=0;labelBackgroundColor=#18141D;labelBorderColor=none;fillColor=#18141D;movable=0;resizable=0;rotatable=0;deletable=0;editable=0;fontColor=#d1d5db;html=1;strokeColor=#D1D5DB;strokeWidth=1;" parent="69" vertex="1">
                    <mxGeometry x="80" width="90" height="30" as="geometry">
                        <mxRectangle width="90" height="30" as="alternateBounds"/>
                    </mxGeometry>
                </mxCell>
                <mxCell id="72" value="Links to the Post model, many-to-one relationship." style="shape=partialRectangle;connectable=0;top=1;left=1;bottom=1;right=1;align=left;spacingLeft=5;overflow=hidden;fontSize=10;fontStyle=0;fontFamily=Verdana;verticalAlign=middle;labelBackgroundColor=#18141D;spacing=0;labelBorderColor=none;fillColor=#18141D;movable=0;resizable=0;rotatable=0;deletable=0;editable=0;fontColor=#d1d5db;html=1;strokeColor=#D1D5DB;strokeWidth=1;" parent="69" vertex="1">
                    <mxGeometry x="170" width="350" height="30" as="geometry">
                        <mxRectangle width="350" height="30" as="alternateBounds"/>
                    </mxGeometry>
                </mxCell>
                <mxCell id="73" value="" style="shape=tableRow;horizontal=0;startSize=0;swimlaneHead=0;swimlaneBody=0;fillColor=#18141D;collapsible=0;dropTarget=0;points=[[0,0.5],[1,0.5]];portConstraint=eastwest;top=0;left=0;right=0;bottom=0;align=left;fontSize=11;fontStyle=0;fontFamily=Verdana;verticalAlign=middle;spacing=0;spacingLeft=0;labelBackgroundColor=#18141D;labelBorderColor=none;movable=0;resizable=0;rotatable=0;deletable=0;editable=0;connectable=0;fontColor=#d1d5db;html=1;strokeColor=#D1D5DB;strokeWidth=1;" parent="56" vertex="1">
                    <mxGeometry y="150" width="520" height="30" as="geometry"/>
                </mxCell>
                <mxCell id="74" value="content" style="shape=partialRectangle;connectable=0;top=1;left=1;bottom=1;right=1;editable=0;overflow=hidden;align=left;fontSize=10;fontStyle=0;fontFamily=Verdana;verticalAlign=middle;spacingLeft=5;spacing=0;labelBackgroundColor=#18141D;labelBorderColor=none;fillColor=#18141D;movable=0;resizable=0;rotatable=0;deletable=0;fontColor=#d1d5db;html=1;strokeColor=#D1D5DB;strokeWidth=1;" parent="73" vertex="1">
                    <mxGeometry width="80" height="30" as="geometry">
                        <mxRectangle width="80" height="30" as="alternateBounds"/>
                    </mxGeometry>
                </mxCell>
                <mxCell id="75" value="TextField" style="shape=partialRectangle;connectable=0;top=1;left=1;bottom=1;right=1;align=left;spacingLeft=5;overflow=hidden;fontSize=10;fontStyle=0;fontFamily=Verdana;verticalAlign=middle;spacing=0;labelBackgroundColor=#18141D;labelBorderColor=none;fillColor=#18141D;movable=0;resizable=0;rotatable=0;deletable=0;editable=0;fontColor=#d1d5db;html=1;strokeColor=#D1D5DB;strokeWidth=1;" parent="73" vertex="1">
                    <mxGeometry x="80" width="90" height="30" as="geometry">
                        <mxRectangle width="90" height="30" as="alternateBounds"/>
                    </mxGeometry>
                </mxCell>
                <mxCell id="76" value="Content of the comment." style="shape=partialRectangle;connectable=0;top=1;left=1;bottom=1;right=1;align=left;spacingLeft=5;overflow=hidden;fontSize=10;fontStyle=0;fontFamily=Verdana;verticalAlign=middle;labelBackgroundColor=#18141D;spacing=0;labelBorderColor=none;fillColor=#18141D;movable=0;resizable=0;rotatable=0;deletable=0;editable=0;fontColor=#d1d5db;html=1;strokeColor=#D1D5DB;strokeWidth=1;" parent="73" vertex="1">
                    <mxGeometry x="170" width="350" height="30" as="geometry">
                        <mxRectangle width="350" height="30" as="alternateBounds"/>
                    </mxGeometry>
                </mxCell>
                <mxCell id="77" value="" style="shape=tableRow;horizontal=0;startSize=0;swimlaneHead=0;swimlaneBody=0;fillColor=#18141D;collapsible=0;dropTarget=0;points=[[0,0.5],[1,0.5]];portConstraint=eastwest;top=0;left=0;right=0;bottom=0;align=left;fontSize=11;fontStyle=0;fontFamily=Verdana;verticalAlign=middle;spacing=0;spacingLeft=0;labelBackgroundColor=#18141D;labelBorderColor=none;movable=0;resizable=0;rotatable=0;deletable=0;editable=0;connectable=0;fontColor=#d1d5db;html=1;strokeColor=#D1D5DB;strokeWidth=1;" parent="56" vertex="1">
                    <mxGeometry y="180" width="520" height="30" as="geometry"/>
                </mxCell>
                <mxCell id="78" value="updated_at" style="shape=partialRectangle;connectable=0;top=1;left=1;bottom=1;right=1;editable=0;overflow=hidden;align=left;fontSize=10;fontStyle=0;fontFamily=Verdana;verticalAlign=middle;spacingLeft=5;spacing=0;labelBackgroundColor=#18141D;labelBorderColor=none;fillColor=#18141D;movable=0;resizable=0;rotatable=0;deletable=0;fontColor=#d1d5db;html=1;strokeColor=#D1D5DB;strokeWidth=1;" parent="77" vertex="1">
                    <mxGeometry width="80" height="30" as="geometry">
                        <mxRectangle width="80" height="30" as="alternateBounds"/>
                    </mxGeometry>
                </mxCell>
                <mxCell id="79" value="DateTimeField" style="shape=partialRectangle;connectable=0;top=1;left=1;bottom=1;right=1;align=left;spacingLeft=5;overflow=hidden;fontSize=10;fontStyle=0;fontFamily=Verdana;verticalAlign=middle;spacing=0;labelBackgroundColor=#18141D;labelBorderColor=none;fillColor=#18141D;movable=0;resizable=0;rotatable=0;deletable=0;editable=0;fontColor=#d1d5db;html=1;strokeColor=#D1D5DB;strokeWidth=1;" parent="77" vertex="1">
                    <mxGeometry x="80" width="90" height="30" as="geometry">
                        <mxRectangle width="90" height="30" as="alternateBounds"/>
                    </mxGeometry>
                </mxCell>
                <mxCell id="80" value="Date and time when the comment is updated, set automatically." style="shape=partialRectangle;connectable=0;top=1;left=1;bottom=1;right=1;align=left;spacingLeft=5;overflow=hidden;fontSize=10;fontStyle=0;fontFamily=Verdana;verticalAlign=middle;labelBackgroundColor=#18141D;spacing=0;labelBorderColor=none;fillColor=#18141D;movable=0;resizable=0;rotatable=0;deletable=0;editable=0;fontColor=#d1d5db;html=1;strokeColor=#D1D5DB;strokeWidth=1;" parent="77" vertex="1">
                    <mxGeometry x="170" width="350" height="30" as="geometry">
                        <mxRectangle width="350" height="30" as="alternateBounds"/>
                    </mxGeometry>
                </mxCell>
                <mxCell id="81" value="" style="shape=tableRow;horizontal=0;startSize=0;swimlaneHead=0;swimlaneBody=0;fillColor=#18141D;collapsible=0;dropTarget=0;points=[[0,0.5],[1,0.5]];portConstraint=eastwest;top=0;left=0;right=0;bottom=0;align=left;fontSize=11;fontStyle=0;fontFamily=Verdana;verticalAlign=middle;spacing=0;spacingLeft=0;labelBackgroundColor=#18141D;labelBorderColor=none;movable=0;resizable=0;rotatable=0;deletable=0;editable=0;connectable=0;fontColor=#d1d5db;html=1;strokeColor=#D1D5DB;strokeWidth=1;" parent="56" vertex="1">
                    <mxGeometry y="210" width="520" height="30" as="geometry"/>
                </mxCell>
                <mxCell id="82" value="created_at" style="shape=partialRectangle;connectable=0;top=1;left=1;bottom=1;right=1;editable=0;overflow=hidden;align=left;fontSize=10;fontStyle=0;fontFamily=Verdana;verticalAlign=middle;spacingLeft=5;spacing=0;labelBackgroundColor=#18141D;labelBorderColor=none;fillColor=#18141D;movable=0;resizable=0;rotatable=0;deletable=0;fontColor=#d1d5db;html=1;strokeColor=#D1D5DB;strokeWidth=1;" parent="81" vertex="1">
                    <mxGeometry width="80" height="30" as="geometry">
                        <mxRectangle width="80" height="30" as="alternateBounds"/>
                    </mxGeometry>
                </mxCell>
                <mxCell id="83" value="DateTimeField" style="shape=partialRectangle;connectable=0;top=1;left=1;bottom=1;right=1;align=left;spacingLeft=5;overflow=hidden;fontSize=10;fontStyle=0;fontFamily=Verdana;verticalAlign=middle;spacing=0;labelBackgroundColor=#18141D;labelBorderColor=none;fillColor=#18141D;movable=0;resizable=0;rotatable=0;deletable=0;editable=0;fontColor=#d1d5db;html=1;strokeColor=#D1D5DB;strokeWidth=1;" parent="81" vertex="1">
                    <mxGeometry x="80" width="90" height="30" as="geometry">
                        <mxRectangle width="90" height="30" as="alternateBounds"/>
                    </mxGeometry>
                </mxCell>
                <mxCell id="84" value="Date and time when the comment is created, set automatically." style="shape=partialRectangle;connectable=0;top=1;left=1;bottom=1;right=1;align=left;spacingLeft=5;overflow=hidden;fontSize=10;verticalAlign=middle;fontStyle=0;fontFamily=Verdana;labelBackgroundColor=#18141D;spacing=0;labelBorderColor=none;perimeterSpacing=0;fillColor=#18141D;movable=0;resizable=0;rotatable=0;deletable=0;editable=0;fontColor=#d1d5db;html=1;strokeColor=#D1D5DB;strokeWidth=1;" parent="81" vertex="1">
                    <mxGeometry x="170" width="350" height="30" as="geometry">
                        <mxRectangle width="350" height="30" as="alternateBounds"/>
                    </mxGeometry>
                </mxCell>
                <mxCell id="85" value="&lt;font color=&quot;#ffffff&quot; style=&quot;font-size: 20px;&quot;&gt;Posts model&lt;/font&gt;" style="shape=table;startSize=30;container=1;collapsible=1;childLayout=tableLayout;fixedRows=1;rowLines=1;fontStyle=4;align=center;resizeLast=1;fontSize=11;labelPosition=center;verticalLabelPosition=middle;verticalAlign=middle;labelBackgroundColor=#18141D;horizontal=1;spacingLeft=0;fontFamily=Verdana;spacing=0;movable=0;resizable=0;rotatable=0;deletable=0;editable=0;connectable=0;labelBorderColor=none;fillStyle=auto;swimlaneFillColor=default;fillColor=#18141D;columnLines=1;separatorColor=#D1D5DB;bottom=1;strokeColor=#D1D5DB;fontColor=#d1d5db;html=1;strokeWidth=1;" parent="1" vertex="1">
                    <mxGeometry x="-4840" y="-1920" width="510" height="270" as="geometry"/>
                </mxCell>
                <mxCell id="86" value="" style="shape=tableRow;horizontal=0;startSize=0;swimlaneHead=0;swimlaneBody=0;collapsible=0;dropTarget=0;points=[[0,0.5],[1,0.5]];portConstraint=eastwest;top=0;left=0;right=0;bottom=1;align=left;fontSize=11;fontStyle=0;fontFamily=Verdana;verticalAlign=middle;spacing=0;spacingLeft=0;labelBackgroundColor=#18141D;labelBorderColor=none;fillColor=#18141D;movable=0;resizable=0;rotatable=0;deletable=0;editable=0;connectable=0;fontColor=#d1d5db;html=1;strokeColor=#D1D5DB;strokeWidth=1;" parent="85" vertex="1">
                    <mxGeometry y="30" width="510" height="30" as="geometry"/>
                </mxCell>
                <mxCell id="87" value="Name" style="shape=partialRectangle;connectable=0;top=0;left=1;bottom=1;right=1;fontStyle=4;overflow=hidden;align=left;fontSize=12;fontFamily=Verdana;verticalAlign=middle;spacingLeft=5;spacing=0;labelBackgroundColor=#18141D;labelBorderColor=none;fillColor=#18141D;strokeColor=#D1D5DB;movable=0;resizable=0;rotatable=0;deletable=0;editable=0;fontColor=#d1d5db;html=1;strokeWidth=1;" parent="86" vertex="1">
                    <mxGeometry width="80" height="30" as="geometry">
                        <mxRectangle width="80" height="30" as="alternateBounds"/>
                    </mxGeometry>
                </mxCell>
                <mxCell id="88" value="Type" style="shape=partialRectangle;connectable=0;top=0;left=1;bottom=1;right=1;align=left;spacingLeft=5;fontStyle=4;overflow=hidden;fontSize=12;fontFamily=Verdana;verticalAlign=middle;spacing=0;labelBackgroundColor=#18141D;labelBorderColor=none;fillColor=#18141D;strokeWidth=1;gradientColor=none;strokeColor=#D1D5DB;movable=0;resizable=0;rotatable=0;deletable=0;editable=0;fontColor=#d1d5db;html=1;" parent="86" vertex="1">
                    <mxGeometry x="80" width="90" height="30" as="geometry">
                        <mxRectangle width="90" height="30" as="alternateBounds"/>
                    </mxGeometry>
                </mxCell>
                <mxCell id="89" value="Description" style="shape=partialRectangle;connectable=0;top=0;left=1;bottom=1;right=1;align=left;spacingLeft=5;fontStyle=4;overflow=hidden;fontSize=12;fontFamily=Verdana;verticalAlign=middle;spacing=0;labelBackgroundColor=#18141D;labelBorderColor=none;fillColor=#18141D;strokeColor=#D1D5DB;movable=0;resizable=0;rotatable=0;deletable=0;editable=0;fontColor=#d1d5db;html=1;strokeWidth=1;" parent="86" vertex="1">
                    <mxGeometry x="170" width="340" height="30" as="geometry">
                        <mxRectangle width="340" height="30" as="alternateBounds"/>
                    </mxGeometry>
                </mxCell>
                <mxCell id="90" value="" style="shape=tableRow;horizontal=0;startSize=0;swimlaneHead=0;swimlaneBody=0;collapsible=0;dropTarget=0;points=[[0,0.5],[1,0.5]];portConstraint=eastwest;top=0;left=0;right=0;bottom=1;align=left;fontSize=11;fontStyle=0;fontFamily=Verdana;verticalAlign=middle;spacing=0;spacingLeft=0;labelBackgroundColor=#18141D;labelBorderColor=none;fillColor=#18141D;movable=0;resizable=0;rotatable=0;deletable=0;editable=0;connectable=0;fontColor=#d1d5db;html=1;strokeColor=#D1D5DB;strokeWidth=1;" parent="85" vertex="1">
                    <mxGeometry y="60" width="510" height="30" as="geometry"/>
                </mxCell>
                <mxCell id="91" value="id" style="shape=partialRectangle;connectable=0;top=0;left=1;bottom=1;right=1;fontStyle=4;overflow=hidden;align=left;fontSize=10;fontFamily=Verdana;verticalAlign=middle;spacingLeft=5;spacing=0;labelBackgroundColor=#18141D;labelBorderColor=none;fillColor=#18141D;strokeColor=#D1D5DB;movable=0;resizable=0;rotatable=0;deletable=0;editable=0;fontColor=#d1d5db;html=1;strokeWidth=1;" parent="90" vertex="1">
                    <mxGeometry width="80" height="30" as="geometry">
                        <mxRectangle width="80" height="30" as="alternateBounds"/>
                    </mxGeometry>
                </mxCell>
                <mxCell id="92" value="Primary Key" style="shape=partialRectangle;connectable=0;top=0;left=1;bottom=1;right=1;align=left;spacingLeft=5;fontStyle=4;overflow=hidden;fontSize=10;fontFamily=Verdana;verticalAlign=middle;spacing=0;labelBackgroundColor=#18141D;labelBorderColor=none;fillColor=#18141D;strokeWidth=1;gradientColor=none;strokeColor=#D1D5DB;movable=0;resizable=0;rotatable=0;deletable=0;editable=0;fontColor=#d1d5db;html=1;" parent="90" vertex="1">
                    <mxGeometry x="80" width="90" height="30" as="geometry">
                        <mxRectangle width="90" height="30" as="alternateBounds"/>
                    </mxGeometry>
                </mxCell>
                <mxCell id="93" value="Unique identifier for each post" style="shape=partialRectangle;connectable=0;top=0;left=1;bottom=1;right=1;align=left;spacingLeft=5;fontStyle=4;overflow=hidden;fontSize=10;fontFamily=Verdana;verticalAlign=middle;spacing=0;labelBackgroundColor=#18141D;labelBorderColor=none;fillColor=#18141D;strokeColor=#D1D5DB;movable=0;resizable=0;rotatable=0;deletable=0;editable=0;fontColor=#d1d5db;html=1;strokeWidth=1;" parent="90" vertex="1">
                    <mxGeometry x="170" width="340" height="30" as="geometry">
                        <mxRectangle width="340" height="30" as="alternateBounds"/>
                    </mxGeometry>
                </mxCell>
                <mxCell id="94" value="" style="shape=tableRow;horizontal=0;startSize=0;swimlaneHead=0;swimlaneBody=0;collapsible=0;dropTarget=0;points=[[0,0.5],[1,0.5]];portConstraint=eastwest;top=0;left=0;right=0;bottom=0;align=left;fontSize=11;fontStyle=0;fontFamily=Verdana;labelBackgroundColor=#18141D;verticalAlign=middle;spacing=0;spacingLeft=0;labelBorderColor=none;fillColor=#18141D;movable=0;resizable=0;rotatable=0;deletable=0;editable=0;connectable=0;fontColor=#d1d5db;html=1;strokeColor=#D1D5DB;strokeWidth=1;" parent="85" vertex="1">
                    <mxGeometry y="90" width="510" height="30" as="geometry"/>
                </mxCell>
                <mxCell id="95" value="owner" style="shape=partialRectangle;connectable=0;top=0;left=1;bottom=1;right=1;editable=0;overflow=hidden;align=left;fontSize=10;fontStyle=0;fontFamily=Verdana;verticalAlign=middle;spacingLeft=5;spacing=0;labelBackgroundColor=#18141D;labelBorderColor=none;fillColor=#18141D;strokeColor=#D1D5DB;movable=0;resizable=0;rotatable=0;deletable=0;fontColor=#d1d5db;html=1;strokeWidth=1;" parent="94" vertex="1">
                    <mxGeometry width="80" height="30" as="geometry">
                        <mxRectangle width="80" height="30" as="alternateBounds"/>
                    </mxGeometry>
                </mxCell>
                <mxCell id="96" value="ForeignKey" style="shape=partialRectangle;connectable=0;top=0;left=1;bottom=1;right=1;align=left;spacingLeft=5;overflow=hidden;fontSize=10;fontStyle=0;fontFamily=Verdana;verticalAlign=middle;spacing=0;labelBackgroundColor=#18141D;labelBorderColor=none;fillColor=#18141D;strokeWidth=1;gradientColor=none;strokeColor=#D1D5DB;movable=0;resizable=0;rotatable=0;deletable=0;editable=0;fontColor=#d1d5db;html=1;" parent="94" vertex="1">
                    <mxGeometry x="80" width="90" height="30" as="geometry">
                        <mxRectangle width="90" height="30" as="alternateBounds"/>
                    </mxGeometry>
                </mxCell>
                <mxCell id="97" value="Links to the User model, many-to-one relationship." style="shape=partialRectangle;connectable=0;top=0;left=1;bottom=1;right=1;align=left;spacingLeft=5;overflow=hidden;fontSize=10;fontStyle=0;fontFamily=Verdana;verticalAlign=middle;labelBackgroundColor=#18141D;spacing=0;labelBorderColor=none;fillColor=#18141D;strokeColor=#D1D5DB;movable=0;resizable=0;rotatable=0;deletable=0;editable=0;fontColor=#d1d5db;html=1;strokeWidth=1;" parent="94" vertex="1">
                    <mxGeometry x="170" width="340" height="30" as="geometry">
                        <mxRectangle width="340" height="30" as="alternateBounds"/>
                    </mxGeometry>
                </mxCell>
                <mxCell id="98" value="" style="shape=tableRow;horizontal=0;startSize=0;swimlaneHead=0;swimlaneBody=0;collapsible=0;dropTarget=0;points=[[0,0.5],[1,0.5]];portConstraint=eastwest;top=0;left=0;right=0;bottom=0;align=left;fontSize=11;fontStyle=0;fontFamily=Verdana;labelBackgroundColor=#18141D;verticalAlign=middle;spacing=0;spacingLeft=0;labelBorderColor=none;fillColor=#18141D;movable=0;resizable=0;rotatable=0;deletable=0;editable=0;connectable=0;fontColor=#d1d5db;html=1;strokeColor=#D1D5DB;strokeWidth=1;" parent="85" vertex="1">
                    <mxGeometry y="120" width="510" height="30" as="geometry"/>
                </mxCell>
                <mxCell id="99" value="created_at" style="shape=partialRectangle;connectable=0;top=0;left=1;bottom=1;right=1;editable=0;overflow=hidden;align=left;fontSize=10;fontStyle=0;fontFamily=Verdana;verticalAlign=middle;spacingLeft=5;spacing=0;labelBackgroundColor=#18141D;labelBorderColor=none;fillColor=#18141D;strokeColor=#D1D5DB;movable=0;resizable=0;rotatable=0;deletable=0;fontColor=#d1d5db;html=1;strokeWidth=1;" parent="98" vertex="1">
                    <mxGeometry width="80" height="30" as="geometry">
                        <mxRectangle width="80" height="30" as="alternateBounds"/>
                    </mxGeometry>
                </mxCell>
                <mxCell id="100" value="DateTimeField" style="shape=partialRectangle;connectable=0;top=0;left=1;bottom=1;right=1;align=left;spacingLeft=5;overflow=hidden;fontSize=10;fontStyle=0;fontFamily=Verdana;verticalAlign=middle;spacing=0;labelBackgroundColor=#18141D;labelBorderColor=none;fillColor=#18141D;strokeWidth=1;gradientColor=none;strokeColor=#D1D5DB;movable=0;resizable=0;rotatable=0;deletable=0;editable=0;fontColor=#d1d5db;html=1;" parent="98" vertex="1">
                    <mxGeometry x="80" width="90" height="30" as="geometry">
                        <mxRectangle width="90" height="30" as="alternateBounds"/>
                    </mxGeometry>
                </mxCell>
                <mxCell id="101" value="Date and time when the post is created, set automatically." style="shape=partialRectangle;connectable=0;top=0;left=1;bottom=1;right=1;align=left;spacingLeft=5;overflow=hidden;fontSize=10;fontStyle=0;fontFamily=Verdana;verticalAlign=middle;labelBackgroundColor=#18141D;spacing=0;labelBorderColor=none;fillColor=#18141D;strokeColor=#D1D5DB;movable=0;resizable=0;rotatable=0;deletable=0;editable=0;fontColor=#d1d5db;html=1;strokeWidth=1;" parent="98" vertex="1">
                    <mxGeometry x="170" width="340" height="30" as="geometry">
                        <mxRectangle width="340" height="30" as="alternateBounds"/>
                    </mxGeometry>
                </mxCell>
                <mxCell id="102" value="" style="shape=tableRow;horizontal=0;startSize=0;swimlaneHead=0;swimlaneBody=0;collapsible=0;dropTarget=0;points=[[0,0.5],[1,0.5]];portConstraint=eastwest;top=0;left=0;right=0;bottom=0;align=left;fontSize=11;fontStyle=0;fontFamily=Verdana;verticalAlign=middle;spacing=0;spacingLeft=0;labelBackgroundColor=#18141D;labelBorderColor=none;fillColor=#18141D;movable=0;resizable=0;rotatable=0;deletable=0;editable=0;connectable=0;fontColor=#d1d5db;html=1;strokeColor=#D1D5DB;strokeWidth=1;" parent="85" vertex="1">
                    <mxGeometry y="150" width="510" height="30" as="geometry"/>
                </mxCell>
                <mxCell id="103" value="updated_at" style="shape=partialRectangle;connectable=0;top=0;left=1;bottom=1;right=1;editable=0;overflow=hidden;align=left;fontSize=10;fontStyle=0;fontFamily=Verdana;verticalAlign=middle;spacingLeft=5;spacing=0;labelBackgroundColor=#18141D;labelBorderColor=none;fillColor=#18141D;strokeColor=#D1D5DB;movable=0;resizable=0;rotatable=0;deletable=0;fontColor=#d1d5db;html=1;strokeWidth=1;" parent="102" vertex="1">
                    <mxGeometry width="80" height="30" as="geometry">
                        <mxRectangle width="80" height="30" as="alternateBounds"/>
                    </mxGeometry>
                </mxCell>
                <mxCell id="104" value="DateTimeField" style="shape=partialRectangle;connectable=0;top=0;left=1;bottom=1;right=1;align=left;spacingLeft=5;overflow=hidden;fontSize=10;fontStyle=0;fontFamily=Verdana;verticalAlign=middle;spacing=0;labelBackgroundColor=#18141D;labelBorderColor=none;fillColor=#18141D;strokeWidth=1;gradientColor=none;strokeColor=#D1D5DB;movable=0;resizable=0;rotatable=0;deletable=0;editable=0;fontColor=#d1d5db;html=1;" parent="102" vertex="1">
                    <mxGeometry x="80" width="90" height="30" as="geometry">
                        <mxRectangle width="90" height="30" as="alternateBounds"/>
                    </mxGeometry>
                </mxCell>
                <mxCell id="105" value="Date and time when the post is updated, set automatically." style="shape=partialRectangle;connectable=0;top=0;left=1;bottom=1;right=1;align=left;spacingLeft=5;overflow=hidden;fontSize=10;verticalAlign=middle;fontStyle=0;fontFamily=Verdana;labelBackgroundColor=#18141D;spacing=0;labelBorderColor=none;fillColor=#18141D;strokeColor=#D1D5DB;movable=0;resizable=0;rotatable=0;deletable=0;editable=0;fontColor=#d1d5db;html=1;strokeWidth=1;" parent="102" vertex="1">
                    <mxGeometry x="170" width="340" height="30" as="geometry">
                        <mxRectangle width="340" height="30" as="alternateBounds"/>
                    </mxGeometry>
                </mxCell>
                <mxCell id="106" value="" style="shape=tableRow;horizontal=0;startSize=0;swimlaneHead=0;swimlaneBody=0;collapsible=0;dropTarget=0;points=[[0,0.5],[1,0.5]];portConstraint=eastwest;top=0;left=0;right=0;bottom=0;align=left;fontSize=11;fontStyle=0;fontFamily=Verdana;verticalAlign=middle;spacing=0;spacingLeft=0;labelBackgroundColor=#18141D;labelBorderColor=none;fillColor=#18141D;movable=0;resizable=0;rotatable=0;deletable=0;editable=0;connectable=0;fontColor=#d1d5db;html=1;strokeColor=#D1D5DB;strokeWidth=1;" parent="85" vertex="1">
                    <mxGeometry y="180" width="510" height="30" as="geometry"/>
                </mxCell>
                <mxCell id="107" value="title" style="shape=partialRectangle;connectable=0;top=0;left=1;bottom=1;right=1;editable=0;overflow=hidden;align=left;fontSize=10;fontStyle=0;fontFamily=Verdana;verticalAlign=middle;spacingLeft=5;spacing=0;labelBackgroundColor=#18141D;labelBorderColor=none;fillColor=#18141D;strokeColor=#D1D5DB;movable=0;resizable=0;rotatable=0;deletable=0;fontColor=#d1d5db;html=1;strokeWidth=1;" parent="106" vertex="1">
                    <mxGeometry width="80" height="30" as="geometry">
                        <mxRectangle width="80" height="30" as="alternateBounds"/>
                    </mxGeometry>
                </mxCell>
                <mxCell id="108" value="CharField" style="shape=partialRectangle;connectable=0;top=0;left=1;bottom=1;right=1;align=left;spacingLeft=5;overflow=hidden;fontSize=10;fontStyle=0;fontFamily=Verdana;verticalAlign=middle;spacing=0;labelBackgroundColor=#18141D;labelBorderColor=none;fillColor=#18141D;strokeWidth=1;gradientColor=none;strokeColor=#D1D5DB;movable=0;resizable=0;rotatable=0;deletable=0;editable=0;fontColor=#d1d5db;html=1;" parent="106" vertex="1">
                    <mxGeometry x="80" width="90" height="30" as="geometry">
                        <mxRectangle width="90" height="30" as="alternateBounds"/>
                    </mxGeometry>
                </mxCell>
                <mxCell id="109" value="Title of the post. Max length of 255 characters." style="shape=partialRectangle;connectable=0;top=0;left=1;bottom=1;right=1;align=left;spacingLeft=5;overflow=hidden;fontSize=10;fontStyle=0;fontFamily=Verdana;verticalAlign=middle;labelBackgroundColor=#18141D;spacing=0;labelBorderColor=none;fillColor=#18141D;strokeColor=#D1D5DB;movable=0;resizable=0;rotatable=0;deletable=0;editable=0;fontColor=#d1d5db;html=1;strokeWidth=1;" parent="106" vertex="1">
                    <mxGeometry x="170" width="340" height="30" as="geometry">
                        <mxRectangle width="340" height="30" as="alternateBounds"/>
                    </mxGeometry>
                </mxCell>
                <mxCell id="110" value="" style="shape=tableRow;horizontal=0;startSize=0;swimlaneHead=0;swimlaneBody=0;collapsible=0;dropTarget=0;points=[[0,0.5],[1,0.5]];portConstraint=eastwest;top=0;left=0;right=0;bottom=0;align=left;fontSize=11;fontStyle=0;fontFamily=Verdana;verticalAlign=middle;spacing=0;spacingLeft=0;labelBackgroundColor=#18141D;labelBorderColor=none;fillColor=#18141D;movable=0;resizable=0;rotatable=0;deletable=0;editable=0;connectable=0;fontColor=#d1d5db;html=1;strokeColor=#D1D5DB;strokeWidth=1;" parent="85" vertex="1">
                    <mxGeometry y="210" width="510" height="30" as="geometry"/>
                </mxCell>
                <mxCell id="111" value="content" style="shape=partialRectangle;connectable=0;top=0;left=1;bottom=1;right=1;editable=0;overflow=hidden;align=left;fontSize=10;fontStyle=0;fontFamily=Verdana;verticalAlign=middle;spacingLeft=5;spacing=0;labelBackgroundColor=#18141D;labelBorderColor=none;fillColor=#18141D;strokeColor=#D1D5DB;movable=0;resizable=0;rotatable=0;deletable=0;fontColor=#d1d5db;html=1;strokeWidth=1;" parent="110" vertex="1">
                    <mxGeometry width="80" height="30" as="geometry">
                        <mxRectangle width="80" height="30" as="alternateBounds"/>
                    </mxGeometry>
                </mxCell>
                <mxCell id="112" value="TextField" style="shape=partialRectangle;connectable=0;top=0;left=1;bottom=1;right=1;align=left;spacingLeft=5;overflow=hidden;fontSize=10;fontStyle=0;fontFamily=Verdana;verticalAlign=middle;spacing=0;labelBackgroundColor=#18141D;labelBorderColor=none;fillColor=#18141D;strokeWidth=1;gradientColor=none;strokeColor=#D1D5DB;movable=0;resizable=0;rotatable=0;deletable=0;editable=0;fontColor=#d1d5db;html=1;" parent="110" vertex="1">
                    <mxGeometry x="80" width="90" height="30" as="geometry">
                        <mxRectangle width="90" height="30" as="alternateBounds"/>
                    </mxGeometry>
                </mxCell>
                <mxCell id="113" value="Optional content field, can be left blank." style="shape=partialRectangle;connectable=0;top=0;left=1;bottom=1;right=1;align=left;spacingLeft=5;overflow=hidden;fontSize=10;fontStyle=0;fontFamily=Verdana;verticalAlign=middle;labelBackgroundColor=#18141D;spacing=0;labelBorderColor=none;fillColor=#18141D;strokeColor=#D1D5DB;movable=0;resizable=0;rotatable=0;deletable=0;editable=0;fontColor=#d1d5db;html=1;strokeWidth=1;" parent="110" vertex="1">
                    <mxGeometry x="170" width="340" height="30" as="geometry">
                        <mxRectangle width="340" height="30" as="alternateBounds"/>
                    </mxGeometry>
                </mxCell>
                <mxCell id="114" value="" style="shape=tableRow;horizontal=0;startSize=0;swimlaneHead=0;swimlaneBody=0;collapsible=0;dropTarget=0;points=[[0,0.5],[1,0.5]];portConstraint=eastwest;top=0;left=0;right=0;bottom=0;align=left;fontSize=11;fontStyle=0;fontFamily=Verdana;verticalAlign=middle;spacing=0;spacingLeft=0;labelBackgroundColor=#18141D;labelBorderColor=none;fillColor=#18141D;strokeColor=#D1D5DB;movable=0;resizable=0;rotatable=0;deletable=0;editable=0;connectable=0;fontColor=#d1d5db;html=1;strokeWidth=1;" parent="85" vertex="1">
                    <mxGeometry y="240" width="510" height="30" as="geometry"/>
                </mxCell>
                <mxCell id="115" value="image" style="shape=partialRectangle;connectable=0;top=0;left=1;bottom=1;right=1;editable=0;overflow=hidden;align=left;fontSize=10;fontStyle=0;fontFamily=Verdana;verticalAlign=middle;spacingLeft=5;spacing=0;labelBackgroundColor=#18141D;labelBorderColor=none;fillColor=#18141D;strokeColor=#D1D5DB;movable=0;resizable=0;rotatable=0;deletable=0;fontColor=#d1d5db;html=1;strokeWidth=1;" parent="114" vertex="1">
                    <mxGeometry width="80" height="30" as="geometry">
                        <mxRectangle width="80" height="30" as="alternateBounds"/>
                    </mxGeometry>
                </mxCell>
                <mxCell id="116" value="ImageField" style="shape=partialRectangle;connectable=0;top=0;left=1;bottom=1;right=1;align=left;spacingLeft=5;overflow=hidden;fontSize=10;fontStyle=0;fontFamily=Verdana;verticalAlign=middle;spacing=0;labelBackgroundColor=#18141D;labelBorderColor=none;fillColor=#18141D;strokeWidth=1;gradientColor=none;strokeColor=#D1D5DB;movable=0;resizable=0;rotatable=0;deletable=0;editable=0;fontColor=#d1d5db;html=1;" parent="114" vertex="1">
                    <mxGeometry x="80" width="90" height="30" as="geometry">
                        <mxRectangle width="90" height="30" as="alternateBounds"/>
                    </mxGeometry>
                </mxCell>
                <mxCell id="117" value="Optional image field, with a default and specific upload path." style="shape=partialRectangle;connectable=0;top=0;left=1;bottom=1;right=1;align=left;spacingLeft=5;overflow=hidden;fontSize=10;fontStyle=0;fontFamily=Verdana;verticalAlign=middle;labelBackgroundColor=#18141D;spacing=0;labelBorderColor=none;fillColor=#18141D;strokeColor=#D1D5DB;movable=0;resizable=0;rotatable=0;deletable=0;editable=0;fontColor=#d1d5db;html=1;strokeWidth=1;" parent="114" vertex="1">
                    <mxGeometry x="170" width="340" height="30" as="geometry">
                        <mxRectangle width="340" height="30" as="alternateBounds"/>
                    </mxGeometry>
                </mxCell>
                <mxCell id="118" value="&lt;font color=&quot;#ffffff&quot; style=&quot;font-size: 20px;&quot;&gt;Courses model&lt;/font&gt;" style="shape=table;startSize=30;container=1;collapsible=1;childLayout=tableLayout;fixedRows=1;rowLines=1;fontStyle=0;align=center;resizeLast=1;fontFamily=Verdana;fontSize=10;movable=0;resizable=0;rotatable=0;deletable=0;editable=0;connectable=0;labelBackgroundColor=#18141D;horizontal=1;swimlaneLine=1;fillColor=#18141D;resizeLastRow=1;fontColor=#d1d5db;html=1;labelBorderColor=none;strokeColor=#D1D5DB;strokeWidth=1;" parent="1" vertex="1">
                    <mxGeometry x="-4160" y="-1560" width="460" height="270" as="geometry"/>
                </mxCell>
                <mxCell id="119" value="" style="shape=tableRow;horizontal=0;startSize=0;swimlaneHead=0;swimlaneBody=0;fillColor=#18141D;collapsible=0;dropTarget=0;points=[[0,0.5],[1,0.5]];portConstraint=eastwest;top=0;left=0;right=0;bottom=0;fontSize=11;fontFamily=Verdana;align=left;labelBackgroundColor=#18141D;movable=0;resizable=0;rotatable=0;deletable=0;editable=0;connectable=0;fontColor=#d1d5db;html=1;labelBorderColor=none;strokeColor=#D1D5DB;strokeWidth=1;" parent="118" vertex="1">
                    <mxGeometry y="30" width="460" height="30" as="geometry"/>
                </mxCell>
                <mxCell id="120" value="Name" style="shape=partialRectangle;connectable=0;fillColor=#18141D;top=1;left=1;bottom=1;right=1;editable=0;overflow=hidden;fontSize=12;fontFamily=Verdana;align=left;spacingLeft=5;labelBackgroundColor=#18141D;movable=0;resizable=0;rotatable=0;deletable=0;strokeColor=#D1D5DB;fontColor=#d1d5db;html=1;labelBorderColor=none;strokeWidth=1;" parent="119" vertex="1">
                    <mxGeometry width="80" height="30" as="geometry">
                        <mxRectangle width="80" height="30" as="alternateBounds"/>
                    </mxGeometry>
                </mxCell>
                <mxCell id="121" value="Type" style="shape=partialRectangle;connectable=0;fillColor=#18141D;top=1;left=1;bottom=1;right=1;align=left;spacingLeft=5;overflow=hidden;fontSize=12;fontFamily=Verdana;verticalAlign=middle;labelBackgroundColor=#18141D;movable=0;resizable=0;rotatable=0;deletable=0;editable=0;strokeColor=#D1D5DB;fontColor=#d1d5db;html=1;labelBorderColor=none;strokeWidth=1;" parent="119" vertex="1">
                    <mxGeometry x="80" width="90" height="30" as="geometry">
                        <mxRectangle width="90" height="30" as="alternateBounds"/>
                    </mxGeometry>
                </mxCell>
                <mxCell id="122" value="Description" style="shape=partialRectangle;connectable=0;fillColor=#18141D;top=1;left=1;bottom=1;right=1;align=left;spacingLeft=5;overflow=hidden;fontSize=12;fontFamily=Verdana;verticalAlign=middle;labelBackgroundColor=#18141D;movable=0;resizable=0;rotatable=0;deletable=0;editable=0;strokeColor=#D1D5DB;fontColor=#d1d5db;html=1;labelBorderColor=none;strokeWidth=1;" parent="119" vertex="1">
                    <mxGeometry x="170" width="290" height="30" as="geometry">
                        <mxRectangle width="290" height="30" as="alternateBounds"/>
                    </mxGeometry>
                </mxCell>
                <mxCell id="123" value="" style="shape=tableRow;horizontal=0;startSize=0;swimlaneHead=0;swimlaneBody=0;fillColor=#18141D;collapsible=0;dropTarget=0;points=[[0,0.5],[1,0.5]];portConstraint=eastwest;top=0;left=0;right=0;bottom=0;fontSize=11;fontFamily=Verdana;align=left;labelBackgroundColor=#18141D;movable=0;resizable=0;rotatable=0;deletable=0;editable=0;connectable=0;fontColor=#d1d5db;html=1;labelBorderColor=none;strokeColor=#D1D5DB;strokeWidth=1;" parent="118" vertex="1">
                    <mxGeometry y="60" width="460" height="30" as="geometry"/>
                </mxCell>
                <mxCell id="124" value="id" style="shape=partialRectangle;connectable=0;fillColor=#18141D;top=1;left=1;bottom=1;right=1;editable=0;overflow=hidden;fontSize=10;fontFamily=Verdana;align=left;spacingLeft=5;labelBackgroundColor=#18141D;movable=0;resizable=0;rotatable=0;deletable=0;strokeColor=#D1D5DB;fontColor=#d1d5db;html=1;labelBorderColor=none;strokeWidth=1;" parent="123" vertex="1">
                    <mxGeometry width="80" height="30" as="geometry">
                        <mxRectangle width="80" height="30" as="alternateBounds"/>
                    </mxGeometry>
                </mxCell>
                <mxCell id="125" value="Primary Key" style="shape=partialRectangle;connectable=0;fillColor=#18141D;top=1;left=1;bottom=1;right=1;align=left;spacingLeft=5;overflow=hidden;fontSize=10;fontFamily=Verdana;verticalAlign=middle;labelBackgroundColor=#18141D;movable=0;resizable=0;rotatable=0;deletable=0;editable=0;strokeColor=#D1D5DB;fontColor=#d1d5db;html=1;labelBorderColor=none;strokeWidth=1;" parent="123" vertex="1">
                    <mxGeometry x="80" width="90" height="30" as="geometry">
                        <mxRectangle width="90" height="30" as="alternateBounds"/>
                    </mxGeometry>
                </mxCell>
                <mxCell id="126" value="Unique identifier for each course." style="shape=partialRectangle;connectable=0;fillColor=#18141D;top=1;left=1;bottom=1;right=1;align=left;spacingLeft=5;overflow=hidden;fontSize=10;fontFamily=Verdana;verticalAlign=middle;labelBackgroundColor=#18141D;movable=0;resizable=0;rotatable=0;deletable=0;editable=0;strokeColor=#D1D5DB;fontColor=#d1d5db;html=1;labelBorderColor=none;strokeWidth=1;" parent="123" vertex="1">
                    <mxGeometry x="170" width="290" height="30" as="geometry">
                        <mxRectangle width="290" height="30" as="alternateBounds"/>
                    </mxGeometry>
                </mxCell>
                <mxCell id="127" value="" style="shape=tableRow;horizontal=0;startSize=0;swimlaneHead=0;swimlaneBody=0;fillColor=#18141D;collapsible=0;dropTarget=0;points=[[0,0.5],[1,0.5]];portConstraint=eastwest;top=0;left=0;right=0;bottom=0;fontSize=11;fontFamily=Verdana;align=left;labelBackgroundColor=#18141D;movable=0;resizable=0;rotatable=0;deletable=0;editable=0;connectable=0;fontColor=#d1d5db;html=1;labelBorderColor=none;strokeColor=#D1D5DB;strokeWidth=1;" parent="118" vertex="1">
                    <mxGeometry y="90" width="460" height="30" as="geometry"/>
                </mxCell>
                <mxCell id="128" value="title" style="shape=partialRectangle;connectable=0;fillColor=#18141D;top=1;left=1;bottom=1;right=1;editable=0;overflow=hidden;fontSize=10;fontFamily=Verdana;align=left;spacingLeft=5;labelBackgroundColor=#18141D;movable=0;resizable=0;rotatable=0;deletable=0;strokeColor=#D1D5DB;fontColor=#d1d5db;html=1;labelBorderColor=none;strokeWidth=1;" parent="127" vertex="1">
                    <mxGeometry width="80" height="30" as="geometry">
                        <mxRectangle width="80" height="30" as="alternateBounds"/>
                    </mxGeometry>
                </mxCell>
                <mxCell id="129" value="VarChar255" style="shape=partialRectangle;connectable=0;fillColor=#18141D;top=1;left=1;bottom=1;right=1;align=left;spacingLeft=5;overflow=hidden;fontSize=10;fontFamily=Verdana;verticalAlign=middle;labelBackgroundColor=#18141D;movable=0;resizable=0;rotatable=0;deletable=0;editable=0;strokeColor=#D1D5DB;fontColor=#d1d5db;html=1;labelBorderColor=none;strokeWidth=1;" parent="127" vertex="1">
                    <mxGeometry x="80" width="90" height="30" as="geometry">
                        <mxRectangle width="90" height="30" as="alternateBounds"/>
                    </mxGeometry>
                </mxCell>
                <mxCell id="130" value="Course title" style="shape=partialRectangle;connectable=0;fillColor=#18141D;top=1;left=1;bottom=1;right=1;align=left;spacingLeft=5;overflow=hidden;fontSize=10;fontFamily=Verdana;verticalAlign=middle;labelBackgroundColor=#18141D;movable=0;resizable=0;rotatable=0;deletable=0;editable=0;strokeColor=#D1D5DB;fontColor=#d1d5db;html=1;labelBorderColor=none;strokeWidth=1;" parent="127" vertex="1">
                    <mxGeometry x="170" width="290" height="30" as="geometry">
                        <mxRectangle width="290" height="30" as="alternateBounds"/>
                    </mxGeometry>
                </mxCell>
                <mxCell id="131" value="" style="shape=tableRow;horizontal=0;startSize=0;swimlaneHead=0;swimlaneBody=0;fillColor=#18141D;collapsible=0;dropTarget=0;points=[[0,0.5],[1,0.5]];portConstraint=eastwest;top=0;left=0;right=0;bottom=0;fontSize=11;fontFamily=Verdana;align=left;labelBackgroundColor=#18141D;movable=0;resizable=0;rotatable=0;deletable=0;editable=0;connectable=0;fontColor=#d1d5db;html=1;labelBorderColor=none;strokeColor=#D1D5DB;strokeWidth=1;" parent="118" vertex="1">
                    <mxGeometry y="120" width="460" height="30" as="geometry"/>
                </mxCell>
                <mxCell id="132" value="description" style="shape=partialRectangle;connectable=0;fillColor=#18141D;top=1;left=1;bottom=1;right=1;editable=0;overflow=hidden;fontSize=10;fontFamily=Verdana;align=left;spacingLeft=5;labelBackgroundColor=#18141D;movable=0;resizable=0;rotatable=0;deletable=0;strokeColor=#D1D5DB;fontColor=#d1d5db;html=1;labelBorderColor=none;strokeWidth=1;" parent="131" vertex="1">
                    <mxGeometry width="80" height="30" as="geometry">
                        <mxRectangle width="80" height="30" as="alternateBounds"/>
                    </mxGeometry>
                </mxCell>
                <mxCell id="133" value="Text" style="shape=partialRectangle;connectable=0;fillColor=#18141D;top=1;left=1;bottom=1;right=1;align=left;spacingLeft=5;overflow=hidden;fontSize=10;fontFamily=Verdana;verticalAlign=middle;labelBackgroundColor=#18141D;movable=0;resizable=0;rotatable=0;deletable=0;editable=0;strokeColor=#D1D5DB;fontColor=#d1d5db;html=1;labelBorderColor=none;strokeWidth=1;" parent="131" vertex="1">
                    <mxGeometry x="80" width="90" height="30" as="geometry">
                        <mxRectangle width="90" height="30" as="alternateBounds"/>
                    </mxGeometry>
                </mxCell>
                <mxCell id="134" value="Detailed description of course" style="shape=partialRectangle;connectable=0;fillColor=#18141D;top=1;left=1;bottom=1;right=1;align=left;spacingLeft=5;overflow=hidden;fontSize=10;fontFamily=Verdana;verticalAlign=middle;labelBackgroundColor=#18141D;movable=0;resizable=0;rotatable=0;deletable=0;editable=0;strokeColor=#D1D5DB;fontColor=#d1d5db;html=1;labelBorderColor=none;strokeWidth=1;" parent="131" vertex="1">
                    <mxGeometry x="170" width="290" height="30" as="geometry">
                        <mxRectangle width="290" height="30" as="alternateBounds"/>
                    </mxGeometry>
                </mxCell>
                <mxCell id="135" value="" style="shape=tableRow;horizontal=0;startSize=0;swimlaneHead=0;swimlaneBody=0;fillColor=#18141D;collapsible=0;dropTarget=0;points=[[0,0.5],[1,0.5]];portConstraint=eastwest;top=0;left=0;right=0;bottom=0;fontSize=11;fontFamily=Verdana;align=left;labelBackgroundColor=#18141D;movable=0;resizable=0;rotatable=0;deletable=0;editable=0;connectable=0;fontColor=#d1d5db;html=1;labelBorderColor=none;strokeColor=#D1D5DB;strokeWidth=1;" parent="118" vertex="1">
                    <mxGeometry y="150" width="460" height="30" as="geometry"/>
                </mxCell>
                <mxCell id="136" value="date" style="shape=partialRectangle;connectable=0;fillColor=#18141D;top=1;left=1;bottom=1;right=1;editable=0;overflow=hidden;fontSize=10;fontFamily=Verdana;align=left;spacingLeft=5;labelBackgroundColor=#18141D;movable=0;resizable=0;rotatable=0;deletable=0;strokeColor=#D1D5DB;fontColor=#d1d5db;html=1;labelBorderColor=none;strokeWidth=1;" parent="135" vertex="1">
                    <mxGeometry width="80" height="30" as="geometry">
                        <mxRectangle width="80" height="30" as="alternateBounds"/>
                    </mxGeometry>
                </mxCell>
                <mxCell id="137" value="DateTimeFeild" style="shape=partialRectangle;connectable=0;fillColor=#18141D;top=1;left=1;bottom=1;right=1;align=left;spacingLeft=5;overflow=hidden;fontSize=10;fontFamily=Verdana;verticalAlign=middle;labelBackgroundColor=#18141D;movable=0;resizable=0;rotatable=0;deletable=0;editable=0;strokeColor=#D1D5DB;fontColor=#d1d5db;html=1;labelBorderColor=none;strokeWidth=1;" parent="135" vertex="1">
                    <mxGeometry x="80" width="90" height="30" as="geometry">
                        <mxRectangle width="90" height="30" as="alternateBounds"/>
                    </mxGeometry>
                </mxCell>
                <mxCell id="138" value="Date and the time of&amp;nbsp; course." style="shape=partialRectangle;connectable=0;fillColor=#18141D;top=1;left=1;bottom=1;right=1;align=left;spacingLeft=5;overflow=hidden;fontSize=10;fontFamily=Verdana;verticalAlign=middle;labelBackgroundColor=#18141D;movable=0;resizable=0;rotatable=0;deletable=0;editable=0;strokeColor=#D1D5DB;fontColor=#d1d5db;html=1;labelBorderColor=none;strokeWidth=1;" parent="135" vertex="1">
                    <mxGeometry x="170" width="290" height="30" as="geometry">
                        <mxRectangle width="290" height="30" as="alternateBounds"/>
                    </mxGeometry>
                </mxCell>
                <mxCell id="139" value="" style="shape=tableRow;horizontal=0;startSize=0;swimlaneHead=0;swimlaneBody=0;fillColor=#18141D;collapsible=0;dropTarget=0;points=[[0,0.5],[1,0.5]];portConstraint=eastwest;top=0;left=0;right=0;bottom=0;fontSize=11;fontFamily=Verdana;align=left;labelBackgroundColor=#18141D;movable=0;resizable=0;rotatable=0;deletable=0;editable=0;connectable=0;fontColor=#d1d5db;html=1;labelBorderColor=none;strokeColor=#D1D5DB;strokeWidth=1;" parent="118" vertex="1">
                    <mxGeometry y="180" width="460" height="30" as="geometry"/>
                </mxCell>
                <mxCell id="140" value="location" style="shape=partialRectangle;connectable=0;fillColor=#18141D;top=1;left=1;bottom=1;right=1;editable=0;overflow=hidden;fontSize=10;fontFamily=Verdana;align=left;spacingLeft=5;labelBackgroundColor=#18141D;movable=0;resizable=0;rotatable=0;deletable=0;strokeColor=#D1D5DB;fontColor=#d1d5db;html=1;labelBorderColor=none;strokeWidth=1;" parent="139" vertex="1">
                    <mxGeometry width="80" height="30" as="geometry">
                        <mxRectangle width="80" height="30" as="alternateBounds"/>
                    </mxGeometry>
                </mxCell>
                <mxCell id="141" value="VarChar255" style="shape=partialRectangle;connectable=0;fillColor=#18141D;top=1;left=1;bottom=1;right=1;align=left;spacingLeft=5;overflow=hidden;fontSize=10;fontFamily=Verdana;verticalAlign=middle;labelBackgroundColor=#18141D;movable=0;resizable=0;rotatable=0;deletable=0;editable=0;strokeColor=#D1D5DB;fontColor=#d1d5db;html=1;labelBorderColor=none;strokeWidth=1;" parent="139" vertex="1">
                    <mxGeometry x="80" width="90" height="30" as="geometry">
                        <mxRectangle width="90" height="30" as="alternateBounds"/>
                    </mxGeometry>
                </mxCell>
                <mxCell id="142" value="Course location" style="shape=partialRectangle;connectable=0;fillColor=#18141D;top=1;left=1;bottom=1;right=1;align=left;spacingLeft=5;overflow=hidden;fontSize=10;fontFamily=Verdana;verticalAlign=middle;labelBackgroundColor=#18141D;movable=0;resizable=0;rotatable=0;deletable=0;editable=0;strokeColor=#D1D5DB;fontColor=#d1d5db;html=1;labelBorderColor=none;strokeWidth=1;" parent="139" vertex="1">
                    <mxGeometry x="170" width="290" height="30" as="geometry">
                        <mxRectangle width="290" height="30" as="alternateBounds"/>
                    </mxGeometry>
                </mxCell>
                <mxCell id="143" value="" style="shape=tableRow;horizontal=0;startSize=0;swimlaneHead=0;swimlaneBody=0;fillColor=#18141D;collapsible=0;dropTarget=0;points=[[0,0.5],[1,0.5]];portConstraint=eastwest;top=0;left=0;right=0;bottom=0;fontSize=11;fontFamily=Verdana;align=left;labelBackgroundColor=#18141D;movable=0;resizable=0;rotatable=0;deletable=0;editable=0;connectable=0;fontColor=#d1d5db;html=1;labelBorderColor=none;strokeColor=#D1D5DB;strokeWidth=1;" parent="118" vertex="1">
                    <mxGeometry y="210" width="460" height="30" as="geometry"/>
                </mxCell>
                <mxCell id="144" value="max_capacity" style="shape=partialRectangle;connectable=0;fillColor=#18141D;top=1;left=1;bottom=1;right=1;editable=0;overflow=hidden;fontSize=10;fontFamily=Verdana;align=left;spacingLeft=5;labelBackgroundColor=#18141D;movable=0;resizable=0;rotatable=0;deletable=0;strokeColor=#D1D5DB;fontColor=#d1d5db;html=1;labelBorderColor=none;strokeWidth=1;" parent="143" vertex="1">
                    <mxGeometry width="80" height="30" as="geometry">
                        <mxRectangle width="80" height="30" as="alternateBounds"/>
                    </mxGeometry>
                </mxCell>
                <mxCell id="145" value="Integer" style="shape=partialRectangle;connectable=0;fillColor=#18141D;top=1;left=1;bottom=1;right=1;align=left;spacingLeft=5;overflow=hidden;fontSize=10;fontFamily=Verdana;verticalAlign=middle;labelBackgroundColor=#18141D;movable=0;resizable=0;rotatable=0;deletable=0;editable=0;strokeColor=#D1D5DB;fontColor=#d1d5db;html=1;labelBorderColor=none;strokeWidth=1;" parent="143" vertex="1">
                    <mxGeometry x="80" width="90" height="30" as="geometry">
                        <mxRectangle width="90" height="30" as="alternateBounds"/>
                    </mxGeometry>
                </mxCell>
                <mxCell id="146" value="Max number of people on course" style="shape=partialRectangle;connectable=0;fillColor=#18141D;top=1;left=1;bottom=1;right=1;align=left;spacingLeft=5;overflow=hidden;fontSize=10;fontFamily=Verdana;verticalAlign=middle;labelBackgroundColor=#18141D;movable=0;resizable=0;rotatable=0;deletable=0;editable=0;strokeColor=#D1D5DB;fontColor=#d1d5db;html=1;labelBorderColor=none;strokeWidth=1;" parent="143" vertex="1">
                    <mxGeometry x="170" width="290" height="30" as="geometry">
                        <mxRectangle width="290" height="30" as="alternateBounds"/>
                    </mxGeometry>
                </mxCell>
                <mxCell id="147" value="" style="shape=tableRow;horizontal=0;startSize=0;swimlaneHead=0;swimlaneBody=0;fillColor=#18141D;collapsible=0;dropTarget=0;points=[[0,0.5],[1,0.5]];portConstraint=eastwest;top=0;left=0;right=0;bottom=0;fontSize=11;fontFamily=Verdana;align=left;labelBackgroundColor=#18141D;movable=0;resizable=0;rotatable=0;deletable=0;editable=0;connectable=0;fontColor=#d1d5db;html=1;labelBorderColor=none;strokeColor=#D1D5DB;strokeWidth=1;" parent="118" vertex="1">
                    <mxGeometry y="240" width="460" height="30" as="geometry"/>
                </mxCell>
                <mxCell id="148" value="season" style="shape=partialRectangle;connectable=0;fillColor=#18141D;top=1;left=1;bottom=1;right=1;editable=0;overflow=hidden;fontSize=10;fontFamily=Verdana;align=left;spacingLeft=5;labelBackgroundColor=#18141D;movable=0;resizable=0;rotatable=0;deletable=0;strokeColor=#D1D5DB;fontColor=#d1d5db;html=1;labelBorderColor=none;strokeWidth=1;" parent="147" vertex="1">
                    <mxGeometry width="80" height="30" as="geometry">
                        <mxRectangle width="80" height="30" as="alternateBounds"/>
                    </mxGeometry>
                </mxCell>
                <mxCell id="149" value="VarChar(100)" style="shape=partialRectangle;connectable=0;fillColor=#18141D;top=1;left=1;bottom=1;right=1;align=left;spacingLeft=5;overflow=hidden;fontSize=10;fontFamily=Verdana;verticalAlign=middle;labelBackgroundColor=#18141D;movable=0;resizable=0;rotatable=0;deletable=0;editable=0;strokeColor=#D1D5DB;fontColor=#d1d5db;html=1;labelBorderColor=none;strokeWidth=1;" parent="147" vertex="1">
                    <mxGeometry x="80" width="90" height="30" as="geometry">
                        <mxRectangle width="90" height="30" as="alternateBounds"/>
                    </mxGeometry>
                </mxCell>
                <mxCell id="150" value="The season for which the course is offered" style="shape=partialRectangle;connectable=0;fillColor=#18141D;top=1;left=1;bottom=1;right=1;align=left;spacingLeft=5;overflow=hidden;fontSize=10;fontFamily=Verdana;verticalAlign=middle;labelBackgroundColor=#18141D;movable=0;resizable=0;rotatable=0;deletable=0;editable=0;strokeColor=#D1D5DB;fontColor=#d1d5db;html=1;labelBorderColor=none;strokeWidth=1;" parent="147" vertex="1">
                    <mxGeometry x="170" width="290" height="30" as="geometry">
                        <mxRectangle width="290" height="30" as="alternateBounds"/>
                    </mxGeometry>
                </mxCell>
                <mxCell id="151" value="&lt;font color=&quot;#ffffff&quot; style=&quot;font-size: 20px;&quot;&gt;Followers model&lt;/font&gt;" style="shape=table;startSize=30;container=1;collapsible=1;childLayout=tableLayout;fixedRows=1;rowLines=0;fontStyle=4;align=center;resizeLast=1;fontSize=14;labelPosition=center;verticalLabelPosition=middle;verticalAlign=middle;labelBackgroundColor=#18141D;horizontal=1;spacingLeft=0;fontFamily=Verdana;fontColor=#d1d5db;spacing=0;movable=0;resizable=0;rotatable=0;deletable=0;editable=0;connectable=0;labelBorderColor=none;fillColor=#18141D;html=1;strokeColor=#D1D5DB;strokeWidth=1;" parent="1" vertex="1">
                    <mxGeometry x="-4840" y="-1560" width="560" height="180" as="geometry"/>
                </mxCell>
                <mxCell id="152" value="" style="shape=tableRow;horizontal=0;startSize=0;swimlaneHead=0;swimlaneBody=0;fillColor=#18141D;collapsible=0;dropTarget=0;points=[[0,0.5],[1,0.5]];portConstraint=eastwest;top=0;left=0;right=0;bottom=1;align=left;fontSize=11;fontStyle=0;fontFamily=Verdana;verticalAlign=middle;spacing=0;spacingLeft=0;labelBackgroundColor=#18141D;labelBorderColor=none;movable=0;resizable=0;rotatable=0;deletable=0;editable=0;connectable=0;fontColor=#d1d5db;html=1;strokeColor=#D1D5DB;strokeWidth=1;" parent="151" vertex="1">
                    <mxGeometry y="30" width="560" height="30" as="geometry"/>
                </mxCell>
                <mxCell id="153" value="Name" style="shape=partialRectangle;connectable=0;top=1;left=1;bottom=1;right=1;fontStyle=4;overflow=hidden;align=left;fontSize=12;fontFamily=Verdana;verticalAlign=middle;spacingLeft=5;spacing=0;labelBackgroundColor=#18141D;labelBorderColor=none;shadow=0;movable=0;resizable=0;rotatable=0;deletable=0;editable=0;fillColor=#18141D;fontColor=#d1d5db;html=1;strokeWidth=1;strokeColor=#D1D5DB;" parent="152" vertex="1">
                    <mxGeometry width="80" height="30" as="geometry">
                        <mxRectangle width="80" height="30" as="alternateBounds"/>
                    </mxGeometry>
                </mxCell>
                <mxCell id="154" value="Type" style="shape=partialRectangle;connectable=0;top=1;left=1;bottom=1;right=1;align=left;spacingLeft=5;fontStyle=4;overflow=hidden;fontSize=12;fontFamily=Verdana;verticalAlign=middle;spacing=0;labelBackgroundColor=#18141D;labelBorderColor=none;shadow=0;movable=0;resizable=0;rotatable=0;deletable=0;editable=0;fillColor=#18141D;fontColor=#d1d5db;html=1;strokeWidth=1;strokeColor=#D1D5DB;" parent="152" vertex="1">
                    <mxGeometry x="80" width="90" height="30" as="geometry">
                        <mxRectangle width="90" height="30" as="alternateBounds"/>
                    </mxGeometry>
                </mxCell>
                <mxCell id="155" value="Description" style="shape=partialRectangle;connectable=0;top=1;left=1;bottom=1;right=1;align=left;spacingLeft=5;fontStyle=4;overflow=hidden;fontSize=12;fontFamily=Verdana;verticalAlign=middle;spacing=0;labelBackgroundColor=#18141D;labelBorderColor=none;shadow=0;movable=0;resizable=0;rotatable=0;deletable=0;editable=0;fillColor=#18141D;fontColor=#d1d5db;html=1;strokeWidth=1;strokeColor=#D1D5DB;" parent="152" vertex="1">
                    <mxGeometry x="170" width="390" height="30" as="geometry">
                        <mxRectangle width="390" height="30" as="alternateBounds"/>
                    </mxGeometry>
                </mxCell>
                <mxCell id="156" value="" style="shape=tableRow;horizontal=0;startSize=0;swimlaneHead=0;swimlaneBody=0;fillColor=#18141D;collapsible=0;dropTarget=0;points=[[0,0.5],[1,0.5]];portConstraint=eastwest;top=0;left=0;right=0;bottom=1;align=left;fontSize=11;fontStyle=0;fontFamily=Verdana;verticalAlign=middle;spacing=0;spacingLeft=0;labelBackgroundColor=#18141D;labelBorderColor=none;movable=0;resizable=0;rotatable=0;deletable=0;editable=0;connectable=0;fontColor=#d1d5db;html=1;strokeColor=#D1D5DB;strokeWidth=1;" parent="151" vertex="1">
                    <mxGeometry y="60" width="560" height="30" as="geometry"/>
                </mxCell>
                <mxCell id="157" value="id" style="shape=partialRectangle;connectable=0;top=1;left=1;bottom=1;right=1;fontStyle=4;overflow=hidden;align=left;fontSize=10;fontFamily=Verdana;verticalAlign=middle;spacingLeft=5;spacing=0;labelBackgroundColor=#18141D;labelBorderColor=none;shadow=0;movable=0;resizable=0;rotatable=0;deletable=0;editable=0;fillColor=#18141D;fontColor=#d1d5db;html=1;strokeWidth=1;strokeColor=#D1D5DB;" parent="156" vertex="1">
                    <mxGeometry width="80" height="30" as="geometry">
                        <mxRectangle width="80" height="30" as="alternateBounds"/>
                    </mxGeometry>
                </mxCell>
                <mxCell id="158" value="Primary Key" style="shape=partialRectangle;connectable=0;top=1;left=1;bottom=1;right=1;align=left;spacingLeft=5;fontStyle=4;overflow=hidden;fontSize=10;fontFamily=Verdana;verticalAlign=middle;spacing=0;labelBackgroundColor=#18141D;labelBorderColor=none;shadow=0;movable=0;resizable=0;rotatable=0;deletable=0;editable=0;fillColor=#18141D;fontColor=#d1d5db;html=1;strokeWidth=1;strokeColor=#D1D5DB;" parent="156" vertex="1">
                    <mxGeometry x="80" width="90" height="30" as="geometry">
                        <mxRectangle width="90" height="30" as="alternateBounds"/>
                    </mxGeometry>
                </mxCell>
                <mxCell id="159" value="Unique identifier for each comment." style="shape=partialRectangle;connectable=0;top=1;left=1;bottom=1;right=1;align=left;spacingLeft=5;fontStyle=4;overflow=hidden;fontSize=10;fontFamily=Verdana;verticalAlign=middle;spacing=0;labelBackgroundColor=#18141D;labelBorderColor=none;shadow=0;movable=0;resizable=0;rotatable=0;deletable=0;editable=0;fillColor=#18141D;fontColor=#d1d5db;html=1;strokeWidth=1;strokeColor=#D1D5DB;" parent="156" vertex="1">
                    <mxGeometry x="170" width="390" height="30" as="geometry">
                        <mxRectangle width="390" height="30" as="alternateBounds"/>
                    </mxGeometry>
                </mxCell>
                <mxCell id="160" value="" style="shape=tableRow;horizontal=0;startSize=0;swimlaneHead=0;swimlaneBody=0;fillColor=#18141D;collapsible=0;dropTarget=0;points=[[0,0.5],[1,0.5]];portConstraint=eastwest;top=0;left=0;right=0;bottom=0;align=left;fontSize=11;fontStyle=0;fontFamily=Verdana;labelBackgroundColor=#18141D;fontColor=#d1d5db;verticalAlign=middle;spacing=0;spacingLeft=0;labelBorderColor=none;movable=0;resizable=0;rotatable=0;deletable=0;editable=0;connectable=0;html=1;strokeColor=#D1D5DB;strokeWidth=1;" parent="151" vertex="1">
                    <mxGeometry y="90" width="560" height="30" as="geometry"/>
                </mxCell>
                <mxCell id="161" value="owner" style="shape=partialRectangle;connectable=0;top=1;left=1;bottom=1;right=1;editable=0;overflow=hidden;align=left;fontSize=10;fontStyle=0;fontFamily=Verdana;verticalAlign=middle;spacingLeft=5;spacing=0;labelBackgroundColor=#18141D;labelBorderColor=none;flipH=0;flipV=0;shadow=0;movable=0;resizable=0;rotatable=0;deletable=0;fillColor=#18141D;fontColor=#d1d5db;html=1;strokeWidth=1;strokeColor=#D1D5DB;" parent="160" vertex="1">
                    <mxGeometry width="80" height="30" as="geometry">
                        <mxRectangle width="80" height="30" as="alternateBounds"/>
                    </mxGeometry>
                </mxCell>
                <mxCell id="162" value="Foreign Key" style="shape=partialRectangle;connectable=0;top=1;left=1;bottom=1;right=1;align=left;spacingLeft=5;overflow=hidden;fontSize=10;fontStyle=0;fontFamily=Verdana;verticalAlign=middle;spacing=0;labelBackgroundColor=#18141D;labelBorderColor=none;flipH=0;flipV=0;shadow=0;movable=0;resizable=0;rotatable=0;deletable=0;editable=0;fillColor=#18141D;fontColor=#d1d5db;html=1;strokeWidth=1;strokeColor=#D1D5DB;" parent="160" vertex="1">
                    <mxGeometry x="80" width="90" height="30" as="geometry">
                        <mxRectangle width="90" height="30" as="alternateBounds"/>
                    </mxGeometry>
                </mxCell>
                <mxCell id="163" value="Links to the User model (follower), many-to-one relationship." style="shape=partialRectangle;connectable=0;top=1;left=1;bottom=1;right=1;align=left;spacingLeft=5;overflow=hidden;fontSize=10;fontStyle=0;fontFamily=Verdana;verticalAlign=middle;labelBackgroundColor=#18141D;spacing=0;labelBorderColor=none;flipH=0;flipV=0;shadow=0;movable=0;resizable=0;rotatable=0;deletable=0;editable=0;fillColor=#18141D;fontColor=#d1d5db;html=1;strokeWidth=1;strokeColor=#D1D5DB;" parent="160" vertex="1">
                    <mxGeometry x="170" width="390" height="30" as="geometry">
                        <mxRectangle width="390" height="30" as="alternateBounds"/>
                    </mxGeometry>
                </mxCell>
                <mxCell id="164" value="" style="shape=tableRow;horizontal=0;startSize=0;swimlaneHead=0;swimlaneBody=0;fillColor=#18141D;collapsible=0;dropTarget=0;points=[[0,0.5],[1,0.5]];portConstraint=eastwest;top=0;left=0;right=0;bottom=0;align=left;fontSize=11;fontStyle=0;fontFamily=Verdana;labelBackgroundColor=#18141D;fontColor=#d1d5db;verticalAlign=middle;spacing=0;spacingLeft=0;labelBorderColor=none;movable=0;resizable=0;rotatable=0;deletable=0;editable=0;connectable=0;html=1;strokeColor=#D1D5DB;strokeWidth=1;" parent="151" vertex="1">
                    <mxGeometry y="120" width="560" height="30" as="geometry"/>
                </mxCell>
                <mxCell id="165" value="followed" style="shape=partialRectangle;connectable=0;top=1;left=1;bottom=1;right=1;editable=0;overflow=hidden;align=left;fontSize=10;fontStyle=0;fontFamily=Verdana;verticalAlign=middle;spacingLeft=5;spacing=0;labelBackgroundColor=#18141D;labelBorderColor=none;flipH=0;flipV=0;shadow=0;movable=0;resizable=0;rotatable=0;deletable=0;fillColor=#18141D;fontColor=#d1d5db;html=1;strokeWidth=1;strokeColor=#D1D5DB;" parent="164" vertex="1">
                    <mxGeometry width="80" height="30" as="geometry">
                        <mxRectangle width="80" height="30" as="alternateBounds"/>
                    </mxGeometry>
                </mxCell>
                <mxCell id="166" value="Foreign Key" style="shape=partialRectangle;connectable=0;top=1;left=1;bottom=1;right=1;align=left;spacingLeft=5;overflow=hidden;fontSize=10;fontStyle=0;fontFamily=Verdana;verticalAlign=middle;spacing=0;labelBackgroundColor=#18141D;labelBorderColor=none;flipH=0;flipV=0;shadow=0;movable=0;resizable=0;rotatable=0;deletable=0;editable=0;fillColor=#18141D;fontColor=#d1d5db;html=1;strokeWidth=1;strokeColor=#D1D5DB;" parent="164" vertex="1">
                    <mxGeometry x="80" width="90" height="30" as="geometry">
                        <mxRectangle width="90" height="30" as="alternateBounds"/>
                    </mxGeometry>
                </mxCell>
                <mxCell id="167" value="Links to the Post model (followed), many-to-one relationship." style="shape=partialRectangle;connectable=0;top=1;left=1;bottom=1;right=1;align=left;spacingLeft=5;overflow=hidden;fontSize=10;fontStyle=0;fontFamily=Verdana;verticalAlign=middle;labelBackgroundColor=#18141D;spacing=0;labelBorderColor=none;flipH=0;flipV=0;shadow=0;movable=0;resizable=0;rotatable=0;deletable=0;editable=0;fillColor=#18141D;fontColor=#d1d5db;html=1;strokeWidth=1;strokeColor=#D1D5DB;" parent="164" vertex="1">
                    <mxGeometry x="170" width="390" height="30" as="geometry">
                        <mxRectangle width="390" height="30" as="alternateBounds"/>
                    </mxGeometry>
                </mxCell>
                <mxCell id="168" value="" style="shape=tableRow;horizontal=0;startSize=0;swimlaneHead=0;swimlaneBody=0;fillColor=#18141D;collapsible=0;dropTarget=0;points=[[0,0.5],[1,0.5]];portConstraint=eastwest;top=0;left=0;right=0;bottom=0;align=left;fontSize=11;fontStyle=0;fontFamily=Verdana;verticalAlign=middle;spacing=0;spacingLeft=0;labelBackgroundColor=#18141D;labelBorderColor=none;movable=0;resizable=0;rotatable=0;deletable=0;editable=0;connectable=0;fontColor=#d1d5db;html=1;strokeColor=#D1D5DB;strokeWidth=1;" parent="151" vertex="1">
                    <mxGeometry y="150" width="560" height="30" as="geometry"/>
                </mxCell>
                <mxCell id="169" value="created_at" style="shape=partialRectangle;connectable=0;top=1;left=1;bottom=1;right=1;editable=0;overflow=hidden;align=left;fontSize=10;fontStyle=0;fontFamily=Verdana;verticalAlign=middle;spacingLeft=5;spacing=0;labelBackgroundColor=#18141D;labelBorderColor=none;flipH=0;flipV=0;shadow=0;movable=0;resizable=0;rotatable=0;deletable=0;fillColor=#18141D;fontColor=#d1d5db;html=1;strokeWidth=1;strokeColor=#D1D5DB;" parent="168" vertex="1">
                    <mxGeometry width="80" height="30" as="geometry">
                        <mxRectangle width="80" height="30" as="alternateBounds"/>
                    </mxGeometry>
                </mxCell>
                <mxCell id="170" value="DateTimeField" style="shape=partialRectangle;connectable=0;top=1;left=1;bottom=1;right=1;align=left;spacingLeft=5;overflow=hidden;fontSize=10;fontStyle=0;fontFamily=Verdana;verticalAlign=middle;spacing=0;labelBackgroundColor=#18141D;labelBorderColor=none;flipH=0;flipV=0;shadow=0;movable=0;resizable=0;rotatable=0;deletable=0;editable=0;fillColor=#18141D;fontColor=#d1d5db;html=1;strokeWidth=1;strokeColor=#D1D5DB;" parent="168" vertex="1">
                    <mxGeometry x="80" width="90" height="30" as="geometry">
                        <mxRectangle width="90" height="30" as="alternateBounds"/>
                    </mxGeometry>
                </mxCell>
                <mxCell id="171" value="Date and time when the follow relationship is created, set automatically" style="shape=partialRectangle;connectable=0;top=1;left=1;bottom=1;right=1;align=left;spacingLeft=5;overflow=hidden;fontSize=10;verticalAlign=middle;fontStyle=0;fontFamily=Verdana;labelBackgroundColor=#18141D;spacing=0;labelBorderColor=none;flipH=0;flipV=0;shadow=0;movable=0;resizable=0;rotatable=0;deletable=0;editable=0;fillColor=#18141D;fontColor=#d1d5db;html=1;strokeWidth=1;strokeColor=#D1D5DB;" parent="168" vertex="1">
                    <mxGeometry x="170" width="390" height="30" as="geometry">
                        <mxRectangle width="390" height="30" as="alternateBounds"/>
                    </mxGeometry>
                </mxCell>
                <mxCell id="172" value="&lt;font style=&quot;font-size: 20px;&quot;&gt;Course Registration model&lt;/font&gt;" style="shape=table;startSize=30;container=1;collapsible=1;childLayout=tableLayout;fixedRows=1;rowLines=1;fontStyle=4;align=center;resizeLast=1;fontFamily=Verdana;fontSize=10;movable=0;resizable=0;rotatable=0;deletable=0;editable=0;connectable=0;labelBackgroundColor=#18141D;horizontal=1;swimlaneLine=1;fillColor=#18141D;resizeLastRow=1;fontColor=#d1d5db;html=1;labelBorderColor=none;strokeColor=#D1D5DB;strokeWidth=1;" parent="1" vertex="1">
                    <mxGeometry x="-4840" y="-1280" width="573" height="390" as="geometry"/>
                </mxCell>
                <mxCell id="173" value="" style="shape=tableRow;horizontal=0;startSize=0;swimlaneHead=0;swimlaneBody=0;fillColor=#18141D;collapsible=0;dropTarget=0;points=[[0,0.5],[1,0.5]];portConstraint=eastwest;top=0;left=0;right=0;bottom=0;fontSize=11;fontFamily=Verdana;align=left;labelBackgroundColor=#18141D;movable=0;resizable=0;rotatable=0;deletable=0;editable=0;connectable=0;fontColor=#d1d5db;html=1;labelBorderColor=none;strokeColor=#D1D5DB;strokeWidth=1;" parent="172" vertex="1">
                    <mxGeometry y="30" width="573" height="30" as="geometry"/>
                </mxCell>
                <mxCell id="174" value="Name" style="shape=partialRectangle;connectable=0;fillColor=#18141D;top=1;left=1;bottom=1;right=1;editable=0;overflow=hidden;fontSize=12;fontFamily=Verdana;align=left;spacingLeft=5;labelBackgroundColor=#18141D;movable=0;resizable=0;rotatable=0;deletable=0;strokeColor=#D1D5DB;fontStyle=4;fontColor=#d1d5db;html=1;labelBorderColor=none;strokeWidth=1;" parent="173" vertex="1">
                    <mxGeometry width="123" height="30" as="geometry">
                        <mxRectangle width="123" height="30" as="alternateBounds"/>
                    </mxGeometry>
                </mxCell>
                <mxCell id="175" value="Type" style="shape=partialRectangle;connectable=0;fillColor=#18141D;top=1;left=1;bottom=1;right=1;align=left;spacingLeft=5;overflow=hidden;fontSize=12;fontFamily=Verdana;verticalAlign=middle;labelBackgroundColor=#18141D;movable=0;resizable=0;rotatable=0;deletable=0;editable=0;strokeColor=#D1D5DB;fontStyle=4;fontColor=#d1d5db;html=1;labelBorderColor=none;strokeWidth=1;" parent="173" vertex="1">
                    <mxGeometry x="123" width="90" height="30" as="geometry">
                        <mxRectangle width="90" height="30" as="alternateBounds"/>
                    </mxGeometry>
                </mxCell>
                <mxCell id="176" value="Description" style="shape=partialRectangle;connectable=0;fillColor=#18141D;top=1;left=1;bottom=1;right=1;align=left;spacingLeft=5;overflow=hidden;fontSize=12;fontFamily=Verdana;verticalAlign=middle;labelBackgroundColor=#18141D;movable=0;resizable=0;rotatable=0;deletable=0;editable=0;strokeColor=#D1D5DB;fontStyle=4;fontColor=#d1d5db;html=1;labelBorderColor=none;strokeWidth=1;" parent="173" vertex="1">
                    <mxGeometry x="213" width="360" height="30" as="geometry">
                        <mxRectangle width="360" height="30" as="alternateBounds"/>
                    </mxGeometry>
                </mxCell>
                <mxCell id="177" value="" style="shape=tableRow;horizontal=0;startSize=0;swimlaneHead=0;swimlaneBody=0;fillColor=#18141D;collapsible=0;dropTarget=0;points=[[0,0.5],[1,0.5]];portConstraint=eastwest;top=0;left=0;right=0;bottom=0;fontSize=11;fontFamily=Verdana;align=left;labelBackgroundColor=#18141D;movable=0;resizable=0;rotatable=0;deletable=0;editable=0;connectable=0;fontColor=#d1d5db;html=1;labelBorderColor=none;strokeColor=#D1D5DB;strokeWidth=1;" parent="172" vertex="1">
                    <mxGeometry y="60" width="573" height="30" as="geometry"/>
                </mxCell>
                <mxCell id="178" value="id" style="shape=partialRectangle;connectable=0;fillColor=#18141D;top=1;left=1;bottom=1;right=1;editable=0;overflow=hidden;fontSize=10;fontFamily=Verdana;align=left;spacingLeft=5;labelBackgroundColor=#18141D;movable=0;resizable=0;rotatable=0;deletable=0;strokeColor=#D1D5DB;fontColor=#d1d5db;html=1;labelBorderColor=none;strokeWidth=1;" parent="177" vertex="1">
                    <mxGeometry width="123" height="30" as="geometry">
                        <mxRectangle width="123" height="30" as="alternateBounds"/>
                    </mxGeometry>
                </mxCell>
                <mxCell id="179" value="Primary Key" style="shape=partialRectangle;connectable=0;fillColor=#18141D;top=1;left=1;bottom=1;right=1;align=left;spacingLeft=5;overflow=hidden;fontSize=10;fontFamily=Verdana;verticalAlign=middle;labelBackgroundColor=#18141D;movable=0;resizable=0;rotatable=0;deletable=0;editable=0;strokeColor=#D1D5DB;fontColor=#d1d5db;html=1;labelBorderColor=none;strokeWidth=1;" parent="177" vertex="1">
                    <mxGeometry x="123" width="90" height="30" as="geometry">
                        <mxRectangle width="90" height="30" as="alternateBounds"/>
                    </mxGeometry>
                </mxCell>
                <mxCell id="180" value="Unique identifier for each registration." style="shape=partialRectangle;connectable=0;fillColor=#18141D;top=1;left=1;bottom=1;right=1;align=left;spacingLeft=5;overflow=hidden;fontSize=10;fontFamily=Verdana;verticalAlign=middle;labelBackgroundColor=#18141D;movable=0;resizable=0;rotatable=0;deletable=0;editable=0;strokeColor=#D1D5DB;fontColor=#d1d5db;html=1;labelBorderColor=none;strokeWidth=1;" parent="177" vertex="1">
                    <mxGeometry x="213" width="360" height="30" as="geometry">
                        <mxRectangle width="360" height="30" as="alternateBounds"/>
                    </mxGeometry>
                </mxCell>
                <mxCell id="181" value="" style="shape=tableRow;horizontal=0;startSize=0;swimlaneHead=0;swimlaneBody=0;fillColor=#18141D;collapsible=0;dropTarget=0;points=[[0,0.5],[1,0.5]];portConstraint=eastwest;top=0;left=0;right=0;bottom=0;fontSize=11;fontFamily=Verdana;align=left;labelBackgroundColor=#18141D;movable=0;resizable=0;rotatable=0;deletable=0;editable=0;connectable=0;fontColor=#d1d5db;html=1;labelBorderColor=none;strokeColor=#D1D5DB;strokeWidth=1;" parent="172" vertex="1">
                    <mxGeometry y="90" width="573" height="30" as="geometry"/>
                </mxCell>
                <mxCell id="182" value="course_id" style="shape=partialRectangle;connectable=0;fillColor=#18141D;top=1;left=1;bottom=1;right=1;editable=0;overflow=hidden;fontSize=10;fontFamily=Verdana;align=left;spacingLeft=5;labelBackgroundColor=#18141D;movable=0;resizable=0;rotatable=0;deletable=0;strokeColor=#D1D5DB;fontColor=#d1d5db;html=1;labelBorderColor=none;strokeWidth=1;" parent="181" vertex="1">
                    <mxGeometry width="123" height="30" as="geometry">
                        <mxRectangle width="123" height="30" as="alternateBounds"/>
                    </mxGeometry>
                </mxCell>
                <mxCell id="183" value="ForeignKey" style="shape=partialRectangle;connectable=0;fillColor=#18141D;top=1;left=1;bottom=1;right=1;align=left;spacingLeft=5;overflow=hidden;fontSize=10;fontFamily=Verdana;verticalAlign=middle;labelBackgroundColor=#18141D;movable=0;resizable=0;rotatable=0;deletable=0;editable=0;strokeColor=#D1D5DB;fontColor=#d1d5db;html=1;labelBorderColor=none;strokeWidth=1;" parent="181" vertex="1">
                    <mxGeometry x="123" width="90" height="30" as="geometry">
                        <mxRectangle width="90" height="30" as="alternateBounds"/>
                    </mxGeometry>
                </mxCell>
                <mxCell id="184" value="Links to the Course model." style="shape=partialRectangle;connectable=0;fillColor=#18141D;top=1;left=1;bottom=1;right=1;align=left;spacingLeft=5;overflow=hidden;fontSize=10;fontFamily=Verdana;verticalAlign=middle;labelBackgroundColor=#18141D;movable=0;resizable=0;rotatable=0;deletable=0;editable=0;strokeColor=#D1D5DB;fontColor=#d1d5db;html=1;labelBorderColor=none;strokeWidth=1;" parent="181" vertex="1">
                    <mxGeometry x="213" width="360" height="30" as="geometry">
                        <mxRectangle width="360" height="30" as="alternateBounds"/>
                    </mxGeometry>
                </mxCell>
                <mxCell id="185" value="" style="shape=tableRow;horizontal=0;startSize=0;swimlaneHead=0;swimlaneBody=0;fillColor=#18141D;collapsible=0;dropTarget=0;points=[[0,0.5],[1,0.5]];portConstraint=eastwest;top=0;left=0;right=0;bottom=0;fontSize=11;fontFamily=Verdana;align=left;labelBackgroundColor=#18141D;movable=0;resizable=0;rotatable=0;deletable=0;editable=0;connectable=0;fontColor=#d1d5db;html=1;labelBorderColor=none;strokeColor=#D1D5DB;strokeWidth=1;" parent="172" vertex="1">
                    <mxGeometry y="120" width="573" height="30" as="geometry"/>
                </mxCell>
                <mxCell id="186" value="name" style="shape=partialRectangle;connectable=0;fillColor=#18141D;top=1;left=1;bottom=1;right=1;editable=0;overflow=hidden;fontSize=10;fontFamily=Verdana;align=left;spacingLeft=5;labelBackgroundColor=#18141D;movable=0;resizable=0;rotatable=0;deletable=0;strokeColor=#D1D5DB;fontColor=#d1d5db;html=1;labelBorderColor=none;strokeWidth=1;" parent="185" vertex="1">
                    <mxGeometry width="123" height="30" as="geometry">
                        <mxRectangle width="123" height="30" as="alternateBounds"/>
                    </mxGeometry>
                </mxCell>
                <mxCell id="187" value="VarChar(255)" style="shape=partialRectangle;connectable=0;fillColor=#18141D;top=1;left=1;bottom=1;right=1;align=left;spacingLeft=5;overflow=hidden;fontSize=10;fontFamily=Verdana;verticalAlign=middle;labelBackgroundColor=#18141D;movable=0;resizable=0;rotatable=0;deletable=0;editable=0;strokeColor=#D1D5DB;fontColor=#d1d5db;html=1;labelBorderColor=none;strokeWidth=1;" parent="185" vertex="1">
                    <mxGeometry x="123" width="90" height="30" as="geometry">
                        <mxRectangle width="90" height="30" as="alternateBounds"/>
                    </mxGeometry>
                </mxCell>
                <mxCell id="188" value="Name of the participant." style="shape=partialRectangle;connectable=0;fillColor=#18141D;top=1;left=1;bottom=1;right=1;align=left;spacingLeft=5;overflow=hidden;fontSize=10;fontFamily=Verdana;verticalAlign=middle;labelBackgroundColor=#18141D;movable=0;resizable=0;rotatable=0;deletable=0;editable=0;strokeColor=#D1D5DB;fontColor=#d1d5db;html=1;labelBorderColor=none;strokeWidth=1;" parent="185" vertex="1">
                    <mxGeometry x="213" width="360" height="30" as="geometry">
                        <mxRectangle width="360" height="30" as="alternateBounds"/>
                    </mxGeometry>
                </mxCell>
                <mxCell id="189" value="" style="shape=tableRow;horizontal=0;startSize=0;swimlaneHead=0;swimlaneBody=0;fillColor=#18141D;collapsible=0;dropTarget=0;points=[[0,0.5],[1,0.5]];portConstraint=eastwest;top=0;left=0;right=0;bottom=0;fontSize=11;fontFamily=Verdana;align=left;labelBackgroundColor=#18141D;movable=0;resizable=0;rotatable=0;deletable=0;editable=0;connectable=0;fontColor=#d1d5db;html=1;labelBorderColor=none;strokeColor=#D1D5DB;strokeWidth=1;" parent="172" vertex="1">
                    <mxGeometry y="150" width="573" height="30" as="geometry"/>
                </mxCell>
                <mxCell id="190" value="email" style="shape=partialRectangle;connectable=0;fillColor=#18141D;top=1;left=1;bottom=1;right=1;editable=0;overflow=hidden;fontSize=10;fontFamily=Verdana;align=left;spacingLeft=5;labelBackgroundColor=#18141D;movable=0;resizable=0;rotatable=0;deletable=0;strokeColor=#D1D5DB;fontColor=#d1d5db;html=1;labelBorderColor=none;strokeWidth=1;" parent="189" vertex="1">
                    <mxGeometry width="123" height="30" as="geometry">
                        <mxRectangle width="123" height="30" as="alternateBounds"/>
                    </mxGeometry>
                </mxCell>
                <mxCell id="191" value="VarChar(255)" style="shape=partialRectangle;connectable=0;fillColor=#18141D;top=1;left=1;bottom=1;right=1;align=left;spacingLeft=5;overflow=hidden;fontSize=10;fontFamily=Verdana;verticalAlign=middle;labelBackgroundColor=#18141D;movable=0;resizable=0;rotatable=0;deletable=0;editable=0;strokeColor=#D1D5DB;fontColor=#d1d5db;html=1;labelBorderColor=none;strokeWidth=1;" parent="189" vertex="1">
                    <mxGeometry x="123" width="90" height="30" as="geometry">
                        <mxRectangle width="90" height="30" as="alternateBounds"/>
                    </mxGeometry>
                </mxCell>
                <mxCell id="192" value="Email address of the participant." style="shape=partialRectangle;connectable=0;fillColor=#18141D;top=1;left=1;bottom=1;right=1;align=left;spacingLeft=5;overflow=hidden;fontSize=10;fontFamily=Verdana;verticalAlign=middle;labelBackgroundColor=#18141D;movable=0;resizable=0;rotatable=0;deletable=0;editable=0;strokeColor=#D1D5DB;fontColor=#d1d5db;html=1;labelBorderColor=none;strokeWidth=1;" parent="189" vertex="1">
                    <mxGeometry x="213" width="360" height="30" as="geometry">
                        <mxRectangle width="360" height="30" as="alternateBounds"/>
                    </mxGeometry>
                </mxCell>
                <mxCell id="193" value="" style="shape=tableRow;horizontal=0;startSize=0;swimlaneHead=0;swimlaneBody=0;fillColor=#18141D;collapsible=0;dropTarget=0;points=[[0,0.5],[1,0.5]];portConstraint=eastwest;top=0;left=0;right=0;bottom=0;fontSize=11;fontFamily=Verdana;align=left;labelBackgroundColor=#18141D;movable=0;resizable=0;rotatable=0;deletable=0;editable=0;connectable=0;fontColor=#d1d5db;html=1;labelBorderColor=none;strokeColor=#D1D5DB;strokeWidth=1;" parent="172" vertex="1">
                    <mxGeometry y="180" width="573" height="30" as="geometry"/>
                </mxCell>
                <mxCell id="194" value="phone" style="shape=partialRectangle;connectable=0;fillColor=#18141D;top=1;left=1;bottom=1;right=1;editable=0;overflow=hidden;fontSize=10;fontFamily=Verdana;align=left;spacingLeft=5;labelBackgroundColor=#18141D;movable=0;resizable=0;rotatable=0;deletable=0;strokeColor=#D1D5DB;fontColor=#d1d5db;html=1;labelBorderColor=none;strokeWidth=1;" parent="193" vertex="1">
                    <mxGeometry width="123" height="30" as="geometry">
                        <mxRectangle width="123" height="30" as="alternateBounds"/>
                    </mxGeometry>
                </mxCell>
                <mxCell id="195" value="VarChar(20)" style="shape=partialRectangle;connectable=0;fillColor=#18141D;top=1;left=1;bottom=1;right=1;align=left;spacingLeft=5;overflow=hidden;fontSize=10;fontFamily=Verdana;verticalAlign=middle;labelBackgroundColor=#18141D;movable=0;resizable=0;rotatable=0;deletable=0;editable=0;strokeColor=#D1D5DB;fontColor=#d1d5db;html=1;labelBorderColor=none;strokeWidth=1;" parent="193" vertex="1">
                    <mxGeometry x="123" width="90" height="30" as="geometry">
                        <mxRectangle width="90" height="30" as="alternateBounds"/>
                    </mxGeometry>
                </mxCell>
                <mxCell id="196" value="Phone number of the participant." style="shape=partialRectangle;connectable=0;fillColor=#18141D;top=1;left=1;bottom=1;right=1;align=left;spacingLeft=5;overflow=hidden;fontSize=10;fontFamily=Verdana;verticalAlign=middle;labelBackgroundColor=#18141D;movable=0;resizable=0;rotatable=0;deletable=0;editable=0;strokeColor=#D1D5DB;fontColor=#d1d5db;html=1;labelBorderColor=none;strokeWidth=1;" parent="193" vertex="1">
                    <mxGeometry x="213" width="360" height="30" as="geometry">
                        <mxRectangle width="360" height="30" as="alternateBounds"/>
                    </mxGeometry>
                </mxCell>
                <mxCell id="197" value="" style="shape=tableRow;horizontal=0;startSize=0;swimlaneHead=0;swimlaneBody=0;fillColor=#18141D;collapsible=0;dropTarget=0;points=[[0,0.5],[1,0.5]];portConstraint=eastwest;top=0;left=0;right=0;bottom=0;fontSize=11;fontFamily=Verdana;align=left;labelBackgroundColor=#18141D;movable=0;resizable=0;rotatable=0;deletable=0;editable=0;connectable=0;fontColor=#d1d5db;html=1;labelBorderColor=none;strokeColor=#D1D5DB;strokeWidth=1;" parent="172" vertex="1">
                    <mxGeometry y="210" width="573" height="30" as="geometry"/>
                </mxCell>
                <mxCell id="198" value="registration_date" style="shape=partialRectangle;connectable=0;fillColor=#18141D;top=1;left=1;bottom=1;right=1;editable=0;overflow=hidden;fontSize=10;fontFamily=Verdana;align=left;spacingLeft=5;labelBackgroundColor=#18141D;movable=0;resizable=0;rotatable=0;deletable=0;strokeColor=#D1D5DB;fontColor=#d1d5db;html=1;labelBorderColor=none;strokeWidth=1;" parent="197" vertex="1">
                    <mxGeometry width="123" height="30" as="geometry">
                        <mxRectangle width="123" height="30" as="alternateBounds"/>
                    </mxGeometry>
                </mxCell>
                <mxCell id="199" value="DateTimeField" style="shape=partialRectangle;connectable=0;fillColor=#18141D;top=1;left=1;bottom=1;right=1;align=left;spacingLeft=5;overflow=hidden;fontSize=10;fontFamily=Verdana;verticalAlign=middle;labelBackgroundColor=#18141D;movable=0;resizable=0;rotatable=0;deletable=0;editable=0;strokeColor=#D1D5DB;fontColor=#d1d5db;html=1;labelBorderColor=none;strokeWidth=1;" parent="197" vertex="1">
                    <mxGeometry x="123" width="90" height="30" as="geometry">
                        <mxRectangle width="90" height="30" as="alternateBounds"/>
                    </mxGeometry>
                </mxCell>
                <mxCell id="200" value="Date and time when the participant registered for the course." style="shape=partialRectangle;connectable=0;fillColor=#18141D;top=1;left=1;bottom=1;right=1;align=left;spacingLeft=5;overflow=hidden;fontSize=10;fontFamily=Verdana;verticalAlign=middle;labelBackgroundColor=#18141D;movable=0;resizable=0;rotatable=0;deletable=0;editable=0;strokeColor=#D1D5DB;fontColor=#d1d5db;html=1;labelBorderColor=none;strokeWidth=1;" parent="197" vertex="1">
                    <mxGeometry x="213" width="360" height="30" as="geometry">
                        <mxRectangle width="360" height="30" as="alternateBounds"/>
                    </mxGeometry>
                </mxCell>
                <mxCell id="201" value="" style="shape=tableRow;horizontal=0;startSize=0;swimlaneHead=0;swimlaneBody=0;fillColor=#18141D;collapsible=0;dropTarget=0;points=[[0,0.5],[1,0.5]];portConstraint=eastwest;top=0;left=0;right=0;bottom=0;fontSize=11;fontFamily=Verdana;align=left;labelBackgroundColor=#18141D;movable=0;resizable=0;rotatable=0;deletable=0;editable=0;connectable=0;fontColor=#d1d5db;html=1;labelBorderColor=none;strokeColor=#D1D5DB;strokeWidth=1;" parent="172" vertex="1">
                    <mxGeometry y="240" width="573" height="30" as="geometry"/>
                </mxCell>
                <mxCell id="202" value="status" style="shape=partialRectangle;connectable=0;fillColor=#18141D;top=1;left=1;bottom=1;right=1;editable=0;overflow=hidden;fontSize=10;fontFamily=Verdana;align=left;spacingLeft=5;labelBackgroundColor=#18141D;movable=0;resizable=0;rotatable=0;deletable=0;strokeColor=#D1D5DB;fontColor=#d1d5db;html=1;labelBorderColor=none;strokeWidth=1;" parent="201" vertex="1">
                    <mxGeometry width="123" height="30" as="geometry">
                        <mxRectangle width="123" height="30" as="alternateBounds"/>
                    </mxGeometry>
                </mxCell>
                <mxCell id="203" value="VarChar(50)" style="shape=partialRectangle;connectable=0;fillColor=#18141D;top=1;left=1;bottom=1;right=1;align=left;spacingLeft=5;overflow=hidden;fontSize=10;fontFamily=Verdana;verticalAlign=middle;labelBackgroundColor=#18141D;movable=0;resizable=0;rotatable=0;deletable=0;editable=0;strokeColor=#D1D5DB;fontColor=#d1d5db;html=1;labelBorderColor=none;strokeWidth=1;" parent="201" vertex="1">
                    <mxGeometry x="123" width="90" height="30" as="geometry">
                        <mxRectangle width="90" height="30" as="alternateBounds"/>
                    </mxGeometry>
                </mxCell>
                <mxCell id="204" value="Registration status (e.g., 'Pending', 'Confirmed', 'Cancelled')." style="shape=partialRectangle;connectable=0;fillColor=#18141D;top=1;left=1;bottom=1;right=1;align=left;spacingLeft=5;overflow=hidden;fontSize=10;fontFamily=Verdana;verticalAlign=middle;labelBackgroundColor=#18141D;movable=0;resizable=0;rotatable=0;deletable=0;editable=0;strokeColor=#D1D5DB;fontColor=#d1d5db;html=1;labelBorderColor=none;strokeWidth=1;" parent="201" vertex="1">
                    <mxGeometry x="213" width="360" height="30" as="geometry">
                        <mxRectangle width="360" height="30" as="alternateBounds"/>
                    </mxGeometry>
                </mxCell>
                <mxCell id="205" value="" style="shape=tableRow;horizontal=0;startSize=0;swimlaneHead=0;swimlaneBody=0;fillColor=#18141D;collapsible=0;dropTarget=0;points=[[0,0.5],[1,0.5]];portConstraint=eastwest;top=0;left=0;right=0;bottom=0;fontSize=11;fontFamily=Verdana;align=left;labelBackgroundColor=#18141D;movable=0;resizable=0;rotatable=0;deletable=0;editable=0;connectable=0;fontColor=#d1d5db;html=1;labelBorderColor=none;strokeColor=#D1D5DB;strokeWidth=1;" parent="172" vertex="1">
                    <mxGeometry y="270" width="573" height="30" as="geometry"/>
                </mxCell>
                <mxCell id="206" value="dietary_restrictions" style="shape=partialRectangle;connectable=0;fillColor=#18141D;top=1;left=1;bottom=1;right=1;editable=0;overflow=hidden;fontSize=10;fontFamily=Verdana;align=left;spacingLeft=5;labelBackgroundColor=#18141D;movable=0;resizable=0;rotatable=0;deletable=0;strokeColor=#D1D5DB;fontColor=#d1d5db;html=1;labelBorderColor=none;strokeWidth=1;" parent="205" vertex="1">
                    <mxGeometry width="123" height="30" as="geometry">
                        <mxRectangle width="123" height="30" as="alternateBounds"/>
                    </mxGeometry>
                </mxCell>
                <mxCell id="207" value="Text" style="shape=partialRectangle;connectable=0;fillColor=#18141D;top=1;left=1;bottom=1;right=1;align=left;spacingLeft=5;overflow=hidden;fontSize=10;fontFamily=Verdana;verticalAlign=middle;labelBackgroundColor=#18141D;movable=0;resizable=0;rotatable=0;deletable=0;editable=0;strokeColor=#D1D5DB;fontColor=#d1d5db;html=1;labelBorderColor=none;strokeWidth=1;" parent="205" vertex="1">
                    <mxGeometry x="123" width="90" height="30" as="geometry">
                        <mxRectangle width="90" height="30" as="alternateBounds"/>
                    </mxGeometry>
                </mxCell>
                <mxCell id="208" value="General field for any dietary restrictions (allergies/intolerances)." style="shape=partialRectangle;connectable=0;fillColor=#18141D;top=1;left=1;bottom=1;right=1;align=left;spacingLeft=5;overflow=hidden;fontSize=10;fontFamily=Verdana;verticalAlign=middle;labelBackgroundColor=#18141D;movable=0;resizable=0;rotatable=0;deletable=0;editable=0;strokeColor=#D1D5DB;fontColor=#d1d5db;html=1;labelBorderColor=none;strokeWidth=1;" parent="205" vertex="1">
                    <mxGeometry x="213" width="360" height="30" as="geometry">
                        <mxRectangle width="360" height="30" as="alternateBounds"/>
                    </mxGeometry>
                </mxCell>
                <mxCell id="209" value="" style="shape=tableRow;horizontal=0;startSize=0;swimlaneHead=0;swimlaneBody=0;fillColor=#18141D;collapsible=0;dropTarget=0;points=[[0,0.5],[1,0.5]];portConstraint=eastwest;top=0;left=0;right=0;bottom=0;fontSize=11;fontFamily=Verdana;align=left;labelBackgroundColor=#18141D;movable=0;resizable=0;rotatable=0;deletable=0;editable=0;connectable=0;fontColor=#d1d5db;html=1;labelBorderColor=none;strokeColor=#D1D5DB;strokeWidth=1;" parent="172" vertex="1">
                    <mxGeometry y="300" width="573" height="30" as="geometry"/>
                </mxCell>
                <mxCell id="210" value="is_driver" style="shape=partialRectangle;connectable=0;fillColor=#18141D;top=1;left=1;bottom=1;right=1;editable=0;overflow=hidden;fontSize=10;fontFamily=Verdana;align=left;spacingLeft=5;labelBackgroundColor=#18141D;movable=0;resizable=0;rotatable=0;deletable=0;strokeColor=#D1D5DB;fontColor=#d1d5db;html=1;labelBorderColor=none;strokeWidth=1;" parent="209" vertex="1">
                    <mxGeometry width="123" height="30" as="geometry">
                        <mxRectangle width="123" height="30" as="alternateBounds"/>
                    </mxGeometry>
                </mxCell>
                <mxCell id="211" value="Boolean" style="shape=partialRectangle;connectable=0;fillColor=#18141D;top=1;left=1;bottom=1;right=1;align=left;spacingLeft=5;overflow=hidden;fontSize=10;fontFamily=Verdana;verticalAlign=middle;labelBackgroundColor=#18141D;movable=0;resizable=0;rotatable=0;deletable=0;editable=0;strokeColor=#D1D5DB;fontColor=#d1d5db;html=1;labelBorderColor=none;strokeWidth=1;" parent="209" vertex="1">
                    <mxGeometry x="123" width="90" height="30" as="geometry">
                        <mxRectangle width="90" height="30" as="alternateBounds"/>
                    </mxGeometry>
                </mxCell>
                <mxCell id="212" value="Indicates whether the participant will drive, default False." style="shape=partialRectangle;connectable=0;fillColor=#18141D;top=1;left=1;bottom=1;right=1;align=left;spacingLeft=5;overflow=hidden;fontSize=10;fontFamily=Verdana;verticalAlign=middle;labelBackgroundColor=#18141D;movable=0;resizable=0;rotatable=0;deletable=0;editable=0;strokeColor=#D1D5DB;fontColor=#d1d5db;html=1;labelBorderColor=none;strokeWidth=1;" parent="209" vertex="1">
                    <mxGeometry x="213" width="360" height="30" as="geometry">
                        <mxRectangle width="360" height="30" as="alternateBounds"/>
                    </mxGeometry>
                </mxCell>
                <mxCell id="213" value="" style="shape=tableRow;horizontal=0;startSize=0;swimlaneHead=0;swimlaneBody=0;fillColor=#18141D;collapsible=0;dropTarget=0;points=[[0,0.5],[1,0.5]];portConstraint=eastwest;top=0;left=0;right=0;bottom=0;fontSize=11;fontFamily=Verdana;align=left;labelBackgroundColor=#18141D;movable=0;resizable=0;rotatable=0;deletable=0;editable=0;connectable=0;fontColor=#d1d5db;html=1;labelBorderColor=none;strokeColor=#D1D5DB;strokeWidth=1;" parent="172" vertex="1">
                    <mxGeometry y="330" width="573" height="30" as="geometry"/>
                </mxCell>
                <mxCell id="214" value="ice_name" style="shape=partialRectangle;connectable=0;fillColor=#18141D;top=1;left=1;bottom=1;right=1;editable=0;overflow=hidden;fontSize=10;fontFamily=Verdana;align=left;spacingLeft=5;labelBackgroundColor=#18141D;movable=0;resizable=0;rotatable=0;deletable=0;strokeColor=#D1D5DB;fontColor=#d1d5db;html=1;labelBorderColor=none;strokeWidth=1;" parent="213" vertex="1">
                    <mxGeometry width="123" height="30" as="geometry">
                        <mxRectangle width="123" height="30" as="alternateBounds"/>
                    </mxGeometry>
                </mxCell>
                <mxCell id="215" value="Varchar(255)" style="shape=partialRectangle;connectable=0;fillColor=#18141D;top=1;left=1;bottom=1;right=1;align=left;spacingLeft=5;overflow=hidden;fontSize=10;fontFamily=Verdana;verticalAlign=middle;labelBackgroundColor=#18141D;movable=0;resizable=0;rotatable=0;deletable=0;editable=0;strokeColor=#D1D5DB;fontColor=#d1d5db;html=1;labelBorderColor=none;strokeWidth=1;" parent="213" vertex="1">
                    <mxGeometry x="123" width="90" height="30" as="geometry">
                        <mxRectangle width="90" height="30" as="alternateBounds"/>
                    </mxGeometry>
                </mxCell>
                <mxCell id="216" value="InCaseofEmergency contact name" style="shape=partialRectangle;connectable=0;fillColor=#18141D;top=1;left=1;bottom=1;right=1;align=left;spacingLeft=5;overflow=hidden;fontSize=10;fontFamily=Verdana;verticalAlign=middle;labelBackgroundColor=#18141D;movable=0;resizable=0;rotatable=0;deletable=0;editable=0;strokeColor=#D1D5DB;fontColor=#d1d5db;html=1;labelBorderColor=none;strokeWidth=1;" parent="213" vertex="1">
                    <mxGeometry x="213" width="360" height="30" as="geometry">
                        <mxRectangle width="360" height="30" as="alternateBounds"/>
                    </mxGeometry>
                </mxCell>
                <mxCell id="217" value="" style="shape=tableRow;horizontal=0;startSize=0;swimlaneHead=0;swimlaneBody=0;fillColor=#18141D;collapsible=0;dropTarget=0;points=[[0,0.5],[1,0.5]];portConstraint=eastwest;top=0;left=0;right=0;bottom=0;fontSize=11;fontFamily=Verdana;align=left;labelBackgroundColor=#18141D;movable=0;resizable=0;rotatable=0;deletable=0;editable=0;connectable=0;fontColor=#d1d5db;html=1;labelBorderColor=none;strokeColor=#D1D5DB;strokeWidth=1;" parent="172" vertex="1">
                    <mxGeometry y="360" width="573" height="30" as="geometry"/>
                </mxCell>
                <mxCell id="218" value="ice_number" style="shape=partialRectangle;connectable=0;fillColor=#18141D;top=1;left=1;bottom=1;right=1;editable=0;overflow=hidden;fontSize=10;fontFamily=Verdana;align=left;spacingLeft=5;labelBackgroundColor=#18141D;movable=0;resizable=0;rotatable=0;deletable=0;strokeColor=#D1D5DB;fontColor=#d1d5db;html=1;labelBorderColor=none;strokeWidth=1;" parent="217" vertex="1">
                    <mxGeometry width="123" height="30" as="geometry">
                        <mxRectangle width="123" height="30" as="alternateBounds"/>
                    </mxGeometry>
                </mxCell>
                <mxCell id="219" value="VarChar(20)" style="shape=partialRectangle;connectable=0;fillColor=#18141D;top=1;left=1;bottom=1;right=1;align=left;spacingLeft=5;overflow=hidden;fontSize=10;fontFamily=Verdana;verticalAlign=middle;labelBackgroundColor=#18141D;movable=0;resizable=0;rotatable=0;deletable=0;editable=0;strokeColor=#D1D5DB;fontColor=#d1d5db;html=1;labelBorderColor=none;strokeWidth=1;" parent="217" vertex="1">
                    <mxGeometry x="123" width="90" height="30" as="geometry">
                        <mxRectangle width="90" height="30" as="alternateBounds"/>
                    </mxGeometry>
                </mxCell>
                <mxCell id="220" value="InCaseofEmergency contact number" style="shape=partialRectangle;connectable=0;fillColor=#18141D;top=1;left=1;bottom=1;right=1;align=left;spacingLeft=5;overflow=hidden;fontSize=10;fontFamily=Verdana;verticalAlign=middle;labelBackgroundColor=#18141D;movable=0;resizable=0;rotatable=0;deletable=0;editable=0;strokeColor=#D1D5DB;fontColor=#d1d5db;html=1;labelBorderColor=none;strokeWidth=1;" parent="217" vertex="1">
                    <mxGeometry x="213" width="360" height="30" as="geometry">
                        <mxRectangle width="360" height="30" as="alternateBounds"/>
                    </mxGeometry>
                </mxCell>
            </root>
        </mxGraphModel>
    </diagram>
</mxfile>